<svg xmlns="http://www.w3.org/2000/svg" width="31.543" height="20.696" viewBox="0 0 31.543 20.696"><g transform="translate(0 -88.032)"><path d="M0,88.032v3.227a18.6,18.6,0,0,1,6.785,1.268q.56.221,1.086.475a17.194,17.194,0,0,1,2.568-.984,18.881,18.881,0,0,1,5.332-.759,18.605,18.605,0,0,1,6.814,1.268q.56.221,1.086.475a17.207,17.207,0,0,1,2.568-.984,18.889,18.889,0,0,1,5.3-.759V88.032Z" fill="#fff"/><path d="M320.59,210.937a3.922,3.922,0,0,0,6.113,3.252,3.913,3.913,0,0,0,1.73-3.252,3.346,3.346,0,0,0-.252-1.233,5.434,5.434,0,0,0-.78-1.33,9.915,9.915,0,0,0-2.889-2.408,10.659,10.659,0,0,0-2.372,1.814,5.892,5.892,0,0,0-1.35,2.067A3.275,3.275,0,0,0,320.59,210.937Z" transform="translate(-300.839 -110.669)" fill="#fff"/><path d="M27.51,175.819a7.91,7.91,0,0,1,1.8,2.8,5.309,5.309,0,0,1,.314,1.766,5.954,5.954,0,1,1-11.908,0,5.647,5.647,0,0,1,.683-2.61,8.879,8.879,0,0,1,1.8-2.318,12.377,12.377,0,0,1,1.289-1.055c-.311-.114-.631-.221-.959-.318a16.867,16.867,0,0,0-4.757-.676,16.634,16.634,0,0,0-5.717.993,11.928,11.928,0,0,1,1.655,1.417,7.915,7.915,0,0,1,1.8,2.8,5.3,5.3,0,0,1,.314,1.766,5.954,5.954,0,1,1-11.908,0,5.65,5.65,0,0,1,.682-2.61,8.881,8.881,0,0,1,1.8-2.318A12.342,12.342,0,0,1,5.687,174.4c-.312-.114-.631-.221-.959-.318A16.874,16.874,0,0,0,0,173.409v15.436H31.543V173.409a16.638,16.638,0,0,0-5.688.993A11.922,11.922,0,0,1,27.51,175.819Z" transform="translate(0 -80.117)" fill="#fff"/><path d="M64.118,210.937a3.921,3.921,0,0,0,6.113,3.252,3.915,3.915,0,0,0,1.73-3.252,3.355,3.355,0,0,0-.252-1.233,5.451,5.451,0,0,0-.78-1.33,9.922,9.922,0,0,0-2.89-2.408,10.651,10.651,0,0,0-2.372,1.814,5.892,5.892,0,0,0-1.35,2.067A3.27,3.27,0,0,0,64.118,210.937Z" transform="translate(-60.168 -110.669)" fill="#fff"/></g></svg>