<svg xmlns="http://www.w3.org/2000/svg" width="18.008" height="18.036" viewBox="0 0 18.008 18.036"><g transform="translate(-3.002 -3.005)"><path d="M12,7.377A4.624,4.624,0,1,0,16.623,12,4.624,4.624,0,0,0,12,7.377ZM12,15a3,3,0,1,1,3-3A3,3,0,0,1,12,15Z" fill="#a5a5a5"/><circle cx="1.078" cy="1.078" r="1.078" transform="translate(15.728 6.129)" fill="#a5a5a5"/><path d="M20.533,6.111A4.6,4.6,0,0,0,17.9,3.479a6.606,6.606,0,0,0-2.186-.42c-.963-.042-1.268-.054-3.71-.054s-2.755,0-3.71.054a6.554,6.554,0,0,0-2.184.42A4.6,4.6,0,0,0,3.477,6.111,6.585,6.585,0,0,0,3.058,8.3C3.015,9.259,3,9.564,3,12.007s0,2.753.056,3.71A6.6,6.6,0,0,0,3.477,17.9a4.61,4.61,0,0,0,2.634,2.632,6.584,6.584,0,0,0,2.185.45c.963.042,1.268.055,3.71.055s2.755,0,3.71-.055a6.615,6.615,0,0,0,2.186-.419,4.613,4.613,0,0,0,2.633-2.633,6.585,6.585,0,0,0,.419-2.186c.043-.962.056-1.267.056-3.71s0-2.753-.056-3.71A6.581,6.581,0,0,0,20.533,6.111Zm-1.218,9.532A5.043,5.043,0,0,1,19,17.331a2.987,2.987,0,0,1-1.712,1.711,4.985,4.985,0,0,1-1.67.311c-.95.044-1.218.055-3.654.055s-2.687,0-3.655-.055a4.96,4.96,0,0,1-1.669-.311,2.985,2.985,0,0,1-1.719-1.711,5.08,5.08,0,0,1-.311-1.669c-.043-.95-.053-1.218-.053-3.654s0-2.686.053-3.655a5.038,5.038,0,0,1,.311-1.687A2.986,2.986,0,0,1,6.644,4.954a5.01,5.01,0,0,1,1.669-.311c.951-.043,1.218-.055,3.655-.055s2.687,0,3.654.055a4.96,4.96,0,0,1,1.67.311A2.991,2.991,0,0,1,19,6.666a5.08,5.08,0,0,1,.311,1.669c.043.951.054,1.218.054,3.655s0,2.7-.043,3.654h-.011Z" fill="#a5a5a5"/></g></svg>