<?xml version="1.0" encoding="utf-8"?>
<!-- Generator: Adobe Illustrator 27.7.0, SVG Export Plug-In . SVG Version: 6.00 Build 0)  -->
<svg version="1.1" id="レイヤー_1" xmlns="http://www.w3.org/2000/svg" xmlns:xlink="http://www.w3.org/1999/xlink" x="0px"
	 y="0px" viewBox="0 0 397 79.3" style="enable-background:new 0 0 397 79.3;" xml:space="preserve">
<style type="text/css">
	.st0{fill:#231815;}
</style>
<g>
	<path class="st0" d="M206.3,79.3l7.6-20c0.1-0.2,0-0.3,0-0.5l-8.5-13.8h6.7l3.9,6.4c0.1,0.2,0.3,0.3,0.5,0.3c0,0,0,0,0.1,0
		c0.2,0,0.4-0.2,0.5-0.4l5.3-13.8c0.1-0.2,0-0.4-0.1-0.5s-0.3-0.2-0.5-0.2H207l11.9-24c0.1-0.2,0.1-0.4,0-0.6
		c-0.1-0.2-0.3-0.3-0.5-0.3h-13V6.5h23.7v5.1c-0.5,0-1.5,0.1-2.7,0.1c-0.2,0-0.4,0.1-0.5,0.3l-9.2,18.6c-0.1,0.2-0.1,0.4,0,0.5
		c0.1,0.2,0.3,0.3,0.5,0.3h14c0,0,0,0,0,0.1v5.2c0,0-1.6,0-1.6,0c-0.2,0-0.4,0.1-0.5,0.4l-8.3,21.6c-0.1,0.2,0,0.3,0,0.5l8.1,13.4
		c0.1,0.2,0.3,0.3,0.5,0.3H285V78l-59.3,0.1l-7.1-11.5c-0.1-0.2-0.3-0.3-0.5-0.3c0,0,0,0-0.1,0c-0.2,0-0.4,0.2-0.5,0.4l-4.8,12.7
		H206.3z"/>
	<path class="st0" d="M253.2,69.9v-7.4c0-0.3-0.3-0.6-0.6-0.6H229v-5.5h23.6c0.3,0,0.6-0.3,0.6-0.6v-5.8c0-0.3-0.3-0.6-0.6-0.6
		h-19.1V44h19.1c0.3,0,0.6-0.3,0.6-0.6v-5.7c0-0.3-0.3-0.6-0.6-0.6h-18.7v-5.3h18.7c0.3,0,0.6-0.3,0.6-0.6v-5c0-0.3-0.3-0.6-0.6-0.6
		h-23.2v-5.3h23.2c0.3,0,0.6-0.3,0.6-0.6v-5c0-0.3-0.3-0.6-0.6-0.6h-18.7V9h18.7c0.3,0,0.6-0.3,0.6-0.6v-5h6v5
		c0,0.3,0.3,0.6,0.6,0.6h12.4c0.1,0,0.2,0,0.3-0.1l7.5-4.1l0,9.4c0,0-0.8,0-0.8,0c-0.1,0-0.3,0.1-0.4,0.2c-0.1,0.1-0.2,0.3-0.2,0.4
		v4.3c0,0.2,0.1,0.4,0.3,0.5c0.1,0.1,0.2,0.1,0.3,0.1c0.1,0,0.2,0,0.3-0.1l6-3.3c0,0,0,9.4,0,9.4h-6.3c-0.3,0-0.6,0.3-0.6,0.6v10.9
		h-18.7c-0.3,0-0.6,0.3-0.6,0.6v5.7c0,0.3,0.3,0.6,0.6,0.6h14.5c0.1,0,0.2,0,0.3-0.1l6.9-3.8l0,9.4l-21.6,0c-0.3,0-0.6,0.3-0.6,0.6
		v5.8c0,0.3,0.3,0.6,0.6,0.6h18.5c0.1,0,0.2,0,0.3-0.1l6.8-3.7l0,9.4l-0.9,0l-24.6,0c-0.3,0-0.6,0.3-0.6,0.6v7.4H253.2z M259.8,25.7
		c-0.3,0-0.6,0.3-0.6,0.6v5c0,0.3,0.3,0.6,0.6,0.6h12.1c0.3,0,0.6-0.3,0.6-0.6v-5c0-0.3-0.3-0.6-0.6-0.6H259.8z M259.8,14.3
		c-0.3,0-0.6,0.3-0.6,0.6v5c0,0.3,0.3,0.6,0.6,0.6h12.1c0.3,0,0.6-0.3,0.6-0.6v-5c0-0.3-0.3-0.6-0.6-0.6H259.8z"/>
	<rect x="319.6" y="5.1" class="st0" width="25.8" height="5.5"/>
	<path class="st0" d="M387.5,79.3l-16.1-14.5c-0.1-0.1-0.2-0.1-0.4-0.1c-0.1,0-0.3,0.1-0.4,0.2l-15.5,14.5h-8.1l19.3-18.2
		c0.1-0.1,0.2-0.3,0.2-0.4c0-0.2-0.1-0.3-0.2-0.4l-14.5-13.2h8.1l10.7,9.6c0.1,0.1,0.2,0.1,0.4,0.1c0.1,0,0.3-0.1,0.4-0.2l13-12.3
		c0.2-0.2,0.2-0.4,0.1-0.6c-0.1-0.2-0.3-0.4-0.5-0.4h-34.4v-5h42.8c0.1,0,0.1,0,0.2,0l3.5-1.4v6.5c0,0-2.1-0.1-2.1-0.1
		c-0.1,0-0.3,0.1-0.4,0.2l-17.9,16.9c-0.1,0.1-0.2,0.3-0.2,0.4c0,0.2,0.1,0.3,0.2,0.4l19.8,18H387.5z"/>
	<path class="st0" d="M319.9,78.4v-29h19.6c0.1,0,0.2,0,0.3-0.1l7.3-4l0,9.4c0,0-0.7,0-0.7,0c-0.1,0-0.3,0.1-0.4,0.2
		c-0.1,0.1-0.2,0.3-0.2,0.4v23.2H319.9z M326.4,54.4c-0.3,0-0.6,0.3-0.6,0.6v17.9c0,0.3,0.3,0.6,0.6,0.6h12.9c0.3,0,0.6-0.3,0.6-0.6
		V54.9c0-0.3-0.3-0.6-0.6-0.6H326.4z"/>
	<path class="st0" d="M348.9,35.5l13.9-31.1h16.5c0.1,0,0.2,0,0.3-0.1l5.9-3.2v9.4c0,0-0.8,0-0.8,0c-0.1,0-0.3,0.1-0.4,0.2
		c-0.1,0.1-0.2,0.3-0.2,0.4v18.1c0,0.3,0.3,0.6,0.6,0.6h5c0.1,0,0.2,0,0.3-0.1l6.9-3.8l0,9.4l-1.2-0.1l-17.7,0V10.3
		c0-0.3-0.3-0.6-0.6-0.6h-10.4c-0.2,0-0.4,0.1-0.5,0.3l-11.3,25.4H348.9z"/>
	<path class="st0" d="M345,21.7l-28,0v-5.5h24.5c0.1,0,0.2,0,0.3-0.1l6.6-3.6l0,9.4L345,21.7z"/>
	<path class="st0" d="M320,32.7v-5.4h18.3c0.1,0,0.2,0,0.3-0.1l7.1-3.9l0,9.4c0,0,0,0,0,0c-0.1,0-0.1,0-0.2,0H320z"/>
	<path class="st0" d="M320,43.7v-5.5h18.4c0.1,0,0.2,0,0.3-0.1l7-3.8l0,9.4c0,0,0,0,0,0c-0.1,0-0.2,0-0.2,0H320z"/>
	<path class="st0" d="M138.2,78.4l9.8-31.9l0.1-22.9c0-0.2,0-0.4-0.1-0.5c-0.1-0.1-0.3-0.2-0.4-0.2h-9.4v-5.5h9.7
		c0.3,0,0.5-0.2,0.5-0.4l0.1-13.5h6.4l0,13.3c0,0.2,0,0.4,0.1,0.5c0.1,0.1,0.3,0.2,0.4,0.2H167c0.1,0,0.2,0,0.3-0.1l6-3.3l0,9.4
		c0,0-0.8,0-0.8,0c-0.1,0-0.3,0.1-0.4,0.2c-0.1,0.1-0.2,0.3-0.2,0.4v54.5l-18.3,0l0-5.2h11.8c0.3,0,0.6-0.3,0.6-0.6V23.5
		c0-0.3-0.3-0.6-0.6-0.6h-10.3c-0.3,0-0.5,0.2-0.5,0.4l-0.2,23.8l-9.8,31.3H138.2z"/>
	<path class="st0" d="M94.4,72.5l17.5-2.5c0.3,0,0.5-0.3,0.5-0.6v-6.2c0-0.3-0.3-0.6-0.6-0.6H96.2v-4.8h15.6c0.3,0,0.6-0.3,0.6-0.6
		v-3.8c0-0.3-0.3-0.6-0.6-0.6H97.2V26.1h14.5c0.3,0,0.6-0.3,0.6-0.6v-2.7c0-0.3-0.3-0.6-0.6-0.6H94.4v-5h17.4c0.3,0,0.6-0.3,0.6-0.6
		v-4.4c0-0.2-0.1-0.3-0.2-0.4c-0.1-0.1-0.2-0.1-0.4-0.1c0,0,0,0-0.1,0l-13.2,1.6V8.1L123.3,5c0.1,0,0.3-0.1,0.4-0.2l8.9-4.8l0,9.4
		l-0.7,0L118.5,11c-0.3,0-0.5,0.3-0.5,0.6v5.2c0,0.3,0.3,0.6,0.6,0.6h9.9c0.1,0,0.2,0,0.3-0.1l7.7-4.2l0,9.4c0,0-1-0.1-1-0.1
		c-0.1,0-0.3,0.1-0.4,0.2c-0.1,0.1-0.2,0.3-0.2,0.4l0,9.3c0,0-0.6,0-0.6,0c-0.1,0-0.3,0.1-0.4,0.2c-0.1,0.1-0.2,0.3-0.2,0.4v20.3
		c0,0.1,0,0.2,0.1,0.3l0,19.1c0,0-2.2-0.1-2.2-0.1c0,0-0.1,0-0.1,0l-37.1,5.2V72.5z M118.6,62.7c-0.3,0-0.6,0.3-0.6,0.6v5.2
		c0,0.2,0.1,0.3,0.2,0.4c0.1,0.1,0.2,0.1,0.4,0.1c0,0,0.1,0,0.1,0l5.8-0.8c0.2,0,0.4-0.2,0.4-0.3L132,64c0.2-0.1,0.3-0.4,0.3-0.6
		c-0.1-0.2-0.3-0.4-0.5-0.4l-2.6-0.1c-0.1-0.1-0.2-0.1-0.4-0.1H118.6z M118.6,52.9c-0.3,0-0.6,0.3-0.6,0.6v3.8
		c0,0.3,0.3,0.6,0.6,0.6h7.4c0.1,0,0.2,0,0.3-0.1l6.9-3.8c0.2-0.1,0.3-0.4,0.3-0.6c-0.1-0.3-0.3-0.4-0.5-0.4H118.6z M118.6,41.9
		c-0.3,0-0.6,0.3-0.6,0.6v5c0,0.3,0.3,0.6,0.6,0.6h8.9c0.3,0,0.6-0.3,0.6-0.6v-5c0-0.3-0.3-0.6-0.6-0.6H118.6z M103.4,41.9
		c-0.3,0-0.6,0.3-0.6,0.6v5c0,0.3,0.3,0.6,0.6,0.6h8.4c0.3,0,0.6-0.3,0.6-0.6v-5c0-0.3-0.3-0.6-0.6-0.6H103.4z M118.6,31
		c-0.3,0-0.6,0.3-0.6,0.6v5c0,0.3,0.3,0.6,0.6,0.6h8.9c0.3,0,0.6-0.3,0.6-0.6v-5c0-0.3-0.3-0.6-0.6-0.6H118.6z M103.4,31
		c-0.3,0-0.6,0.3-0.6,0.6v5c0,0.3,0.3,0.6,0.6,0.6h8.4c0.3,0,0.6-0.3,0.6-0.6v-5c0-0.3-0.3-0.6-0.6-0.6H103.4z M118.6,22.3
		c-0.3,0-0.6,0.3-0.6,0.6v2.7c0,0.3,0.3,0.6,0.6,0.6h10.2c0.1,0,0.2,0,0.3-0.1l5-2.7c0.2-0.1,0.3-0.4,0.3-0.6
		c-0.1-0.3-0.3-0.4-0.5-0.4H118.6z"/>
	<path class="st0" d="M0,78.3v-73c0,0,0-0.1,0-0.1V4.6h6.3v0.5c0,0.3,0.3,0.6,0.6,0.6h44.6c0.1,0,0.2,0,0.3-0.1l6.4-3.5l0,9.4
		c0,0-0.6,0-0.6,0c-0.1,0-0.3,0.1-0.4,0.2c-0.1,0.1-0.2,0.3-0.2,0.4v66.2H0z M6.9,42.6c-0.3,0-0.6,0.3-0.6,0.6V72
		c0,0.3,0.3,0.6,0.6,0.6h43.2c0.3,0,0.6-0.3,0.6-0.6V43.1c0-0.3-0.3-0.6-0.6-0.6H6.9z M6.9,11.4c-0.3,0-0.6,0.3-0.6,0.6v24.4
		c0,0.3,0.3,0.6,0.6,0.6h43.2c0.3,0,0.6-0.3,0.6-0.6V12c0-0.3-0.3-0.6-0.6-0.6H6.9z"/>
</g>
</svg>
