<svg xmlns="http://www.w3.org/2000/svg" width="19.743" height="18" viewBox="0 0 19.743 18"><g transform="translate(1 -0.142)"><rect width="18" height="18" transform="translate(0.142 0.142)" fill="#fcfcfc" opacity="0"/><g transform="translate(0 1.774)"><path d="M3.774,3H17.968a2.777,2.777,0,0,1,2.774,2.774V16.42a2.777,2.777,0,0,1-2.774,2.774H3.774A2.777,2.777,0,0,1,1,16.42V5.774A2.777,2.777,0,0,1,3.774,3ZM17.968,17.194a.775.775,0,0,0,.774-.774V5.774A.775.775,0,0,0,17.968,5H3.774A.775.775,0,0,0,3,5.774V16.42a.775.775,0,0,0,.774.774Z" transform="translate(-2 -4)" fill="#fff"/><path d="M10.871,13.21a1,1,0,0,1-.573-.181L1.427,6.819A1,1,0,0,1,2.573,5.181l8.3,5.808,8.3-5.808a1,1,0,1,1,1.147,1.638l-8.871,6.21A1,1,0,0,1,10.871,13.21Z" transform="translate(-2 -4.226)" fill="#fff"/></g></g></svg>