<svg xmlns="http://www.w3.org/2000/svg" xmlns:xlink="http://www.w3.org/1999/xlink" width="170" height="170" viewBox="0 0 170 170"><defs><linearGradient id="a" x1="0.838" y1="0.775" x2="0.165" y2="0.117" gradientUnits="objectBoundingBox"><stop offset="0" stop-color="#5298d6"/><stop offset="1" stop-color="#64b6ff"/></linearGradient><filter id="b" x="0" y="0" width="170" height="170" filterUnits="userSpaceOnUse"><feOffset dy="3" input="SourceAlpha"/><feGaussianBlur stdDeviation="3" result="c"/><feFlood flood-opacity="0.161"/><feComposite operator="in" in2="c"/><feComposite in="SourceGraphic"/></filter><filter id="d" x="45.154" y="26.988" width="78.69" height="51.37" filterUnits="userSpaceOnUse"><feOffset input="SourceAlpha"/><feGaussianBlur stdDeviation="3" result="e"/><feFlood flood-opacity="0.161"/><feComposite operator="in" in2="e"/><feComposite in="SourceGraphic"/></filter><filter id="f" x="59.368" y="107.624" width="51.088" height="32.8" filterUnits="userSpaceOnUse"><feOffset input="SourceAlpha"/><feGaussianBlur stdDeviation="3" result="g"/><feFlood flood-opacity="0.161"/><feComposite operator="in" in2="g"/><feComposite in="SourceGraphic"/></filter><filter id="h" x="121.266" y="81.1" width="31.524" height="31.146" filterUnits="userSpaceOnUse"><feOffset input="SourceAlpha"/><feGaussianBlur stdDeviation="3" result="i"/><feFlood flood-opacity="0.161"/><feComposite operator="in" in2="i"/><feComposite in="SourceGraphic"/></filter><filter id="j" x="29.17" y="70.6" width="105.96" height="46.05" filterUnits="userSpaceOnUse"><feOffset input="SourceAlpha"/><feGaussianBlur stdDeviation="3" result="k"/><feFlood flood-opacity="0.161"/><feComposite operator="in" in2="k"/><feComposite in="SourceGraphic"/></filter><clipPath id="l"><rect width="11.955" height="14.709" fill="#f1ff4d" stroke="#f1ff4d" stroke-linecap="round" stroke-width="2"/></clipPath></defs><g transform="translate(-199 -117)"><g transform="translate(10 -309)"><g transform="matrix(1, 0, 0, 1, 189, 426)" filter="url(#b)"><circle cx="76" cy="76" r="76" transform="translate(9 6)" fill="url(#a)"/></g><g transform="matrix(1, 0, 0, 1, 189, 426)" filter="url(#d)"><path d="M4.732-3.906V-4.27H6.958c.2,0,.336-.07.378-.224-.518-.518-1.4-1.274-1.4-1.274L5.152-4.662h-.42v-1.05c.322-.042.42-.182.434-.336l-2.352-.21v1.6H.476l.112.392H2.464A11.454,11.454,0,0,1,.294-.042l.14.154a11.341,11.341,0,0,0,2.38-1.806V1.33h.35c.714,0,1.568-.35,1.568-.5V-3.822a4.212,4.212,0,0,1,.7,2.086C6.846-.574,8.47-3.3,4.816-3.948Zm6.23-3.038H9.478V-9.688a18.328,18.328,0,0,0,3.15-.63c.476.14.77.1.938-.056l-2.03-1.61a12.517,12.517,0,0,1-2.114,1.75l-1.89-.588v3.948c-.546-.518-1.3-1.162-1.3-1.162L5.4-6.874H4.368A14.6,14.6,0,0,0,6.286-8.806c.308.028.462-.084.518-.252L4.97-9.618H6.846c.2,0,.336-.07.378-.224-.532-.518-1.442-1.274-1.442-1.274l-.8,1.106H4.83v-1.33c.392-.056.49-.2.5-.392L2.87-11.914v1.9H.56l.112.392H1.54a6.455,6.455,0,0,1,.406,2.31c1.2,1.26,2.94-1.064-.126-2.31H4.592a23.2,23.2,0,0,1-.546,2.744H.336l.112.392H7.336a.826.826,0,0,0,.2-.028v.448c0,2.562-.168,5.18-1.932,7.238l.126.14C9.226-.5,9.478-3.472,9.478-6.006v-.546h.938V1.316h.364A2.045,2.045,0,0,0,12.4.784V-6.552h.98c.2,0,.364-.07.392-.224-.658-.63-1.806-1.582-1.806-1.582ZM27.454-4l-.9,1.12H23.674v-.742c.392-.056.49-.2.518-.392L22.064-4.2a2.9,2.9,0,0,0,2-2.2,3.062,3.062,0,0,1,.224,1.162.884.884,0,0,0,1.316-.028C25.62-4.326,25.76-4,26.88-4Zm-2.646-6.02a3.562,3.562,0,0,1,.434,1.414,1.224,1.224,0,0,0,.532.252l-.322.35H24.36l-1.848-.63a7.345,7.345,0,0,0,1.9-1.386Zm.8,3.808a2.361,2.361,0,0,0-1.512-.756v-.644h1.512Zm3.15,3.724c.21,0,.364-.07.392-.224-.574-.5-1.512-1.176-1.666-1.288h.07c1.316,0,1.9-.364,1.9-.994a.621.621,0,0,0-.434-.672L28.98-7.042h-.14a10.992,10.992,0,0,1-.546,1.33.26.26,0,0,1-.238.126h-.6c-.154,0-.182-.028-.182-.182V-7.49a.7.7,0,0,0,.434-.21l-1.078-.882c.406-.364.42-1.036-.476-1.442h2.716c.2,0,.35-.07.392-.224-.63-.546-1.652-1.33-1.652-1.33l-.91,1.162H24.766A6.485,6.485,0,0,0,25.214-11a.533.533,0,0,0,.56-.308l-2.352-.7a10.985,10.985,0,0,1-.588,1.694c-.532-.5-1.386-1.218-1.386-1.218l-.812,1.12h-1.2l.294-.42c.322.042.5-.07.574-.238L17.99-12a10.689,10.689,0,0,1-1.974,3.934l.14.126a7.943,7.943,0,0,0,2.954-2.086h.126a2.919,2.919,0,0,1,.28,1.358,1.1,1.1,0,0,0,.784.308l-.476.574H16.646l.112.392h1.484v1.974c-.826.084-1.5.154-1.932.182l.91,1.862a.575.575,0,0,0,.392-.336c2.058-.854,3.43-1.5,4.354-1.988l-.028-.168c-.63.084-1.274.168-1.876.238V-7.392h1.722c.21,0,.35-.07.392-.224-.406-.336-.966-.756-1.288-.994.364-.35.378-.994-.518-1.414h2.156a.826.826,0,0,0,.2-.028,8.157,8.157,0,0,1-.966,1.568l.154.126c.126-.056.238-.1.364-.154V-6.86c0,1.05-.308,2.24-2.352,3.136l.07.14a9.7,9.7,0,0,0,1.694-.462v1.162H16.31l.112.392h3.724a9.57,9.57,0,0,1-4.158,3.5l.084.154a13.493,13.493,0,0,0,5.614-2.45V1.33h.336A2.828,2.828,0,0,0,23.674.91v-3.3a6.762,6.762,0,0,0,4.172,3.57A2.31,2.31,0,0,1,29.358-.742L29.386-.9a11.668,11.668,0,0,1-5.32-1.6Zm9.128-9.3a7.558,7.558,0,0,1,1.778,2.6c1.932,1.036,3.122-2.618-1.68-2.688ZM34.734-7.77A16.663,16.663,0,0,0,36.3-10.892a.524.524,0,0,0,.574-.294l-2.688-.8a22.658,22.658,0,0,1-2.7,7.336l.154.1a11.015,11.015,0,0,0,1.582-1.344v7.21H33.6a2.447,2.447,0,0,0,1.652-.56v-7.91c.28-.042.392-.14.434-.266ZM42.266.308H41.1V-4.186h3.234c.2,0,.35-.07.392-.224-.644-.574-1.722-1.414-1.722-1.414L42.07-4.578H41.1V-8.246h3.36c.21,0,.364-.07.406-.224-.686-.6-1.834-1.5-1.834-1.5l-1.022,1.33H35.826l.112.392h2.968v3.668H36.078l.112.392h2.716V.308H35.49L35.6.7h9.226c.21,0,.364-.07.406-.224-.714-.63-1.918-1.554-1.918-1.554Zm16.66-10.99-.994.98h-2.87V-11.41c.392-.07.49-.21.5-.406L52.962-12v2.3H49.826a4.8,4.8,0,0,0-.308-.966H49.35A2.3,2.3,0,0,1,48.244-8.82a1.072,1.072,0,0,0-.63,1.316,1.027,1.027,0,0,0,1.54.42A2.223,2.223,0,0,0,49.9-9.31H58a15.8,15.8,0,0,1-.518,1.568L56.112-8.89a29.449,29.449,0,0,1-7.546,3.01l.042.182c1.246-.084,2.548-.238,3.794-.448V-4.1l-4.886.616.154.378,4.732-.6V-.728c0,1.442.574,1.736,2.38,1.736h1.764c3.052,0,3.78-.364,3.78-1.218,0-.406-.154-.63-.742-.854l-.056-2.072h-.14a10.215,10.215,0,0,1-.868,1.988.571.571,0,0,1-.5.238c-.266.028-.742.028-1.246.028H55.09c-.532,0-.672-.084-.672-.378v-2.7l5.6-.7c.182-.028.336-.126.35-.294-.784-.5-2.03-1.19-2.03-1.19l-.868,1.4-3.052.392v-2.17a24.466,24.466,0,0,0,2.66-.728c.49.154.812.112.966-.028l-.28-.238A12.614,12.614,0,0,0,60.074-8.9c.294-.014.434-.056.546-.182ZM6.146,15.254c.014-.42.028-.868.042-1.358a.856.856,0,0,0,.588-.266L5.194,12.258l-.952.938H3.7c.028-.6.042-1.218.056-1.848h2.94a11.158,11.158,0,0,1-.714,1.526l.14.1a8.923,8.923,0,0,0,.77-.49V14.96ZM4.382,13.588c-.1,3.612-.28,5.222-.658,5.558a.552.552,0,0,1-.434.154c-.238,0-.756-.028-1.134-.042a11.786,11.786,0,0,0,1.526-5.67Zm7.042-.056c0,2-.014,2.688-.154,2.842-.042.056-.112.084-.28.084h-.308V13.84Zm1.61,4.424H12.88a4.473,4.473,0,0,1-.616,1.26.643.643,0,0,1-.448.154c-.224.014-.686.028-1.218.028H9.128c-.518,0-.644-.1-.644-.378V14.736l.686-.28V18.67h.28c.574,0,1.232-.28,1.232-.406V16.78a.84.84,0,0,1,.224.266,2.246,2.246,0,0,1,.154,1.078,2.164,2.164,0,0,0,1.372-.392c.532-.406.6-1.106.6-3.92a.821.821,0,0,0,.532-.238l-1.456-1.19-.812.77-.1.042-.518.21V11.88c.364-.056.462-.2.49-.392l-2-.182v2.716l-.686.28V12.846c.322-.056.448-.2.476-.378L7.14,12.3a8.429,8.429,0,0,0,1.274-1.274h4.928c.21,0,.364-.07.406-.224-.658-.616-1.806-1.54-1.806-1.54l-1.008,1.372H8.708A9.756,9.756,0,0,0,9.59,9.122c.322,0,.5-.112.574-.294l-2.618-.8a15.7,15.7,0,0,1-.658,2.744C6.272,10.2,5.53,9.556,5.53,9.556l-.966,1.4H4.438V8.646c.336-.056.434-.182.448-.35L2.408,8.1v2.856H.336l.112.392H1.834c-.014,3.43.084,6.8-1.68,9.744l.168.182a8.23,8.23,0,0,0,1.722-1.862A1.5,1.5,0,0,1,3.01,20a2.183,2.183,0,0,1,.21,1.232,2.629,2.629,0,0,0,1.848-.6c.644-.574.91-1.708,1.064-4.928l.756-.308v4.1c0,1.232.434,1.512,1.96,1.512h1.6c2.618,0,3.276-.35,3.276-1.078,0-.308-.154-.5-.63-.686ZM26.1,19.8H23.772V10.69h4.34c.21,0,.378-.07.42-.224-.784-.658-2.072-1.652-2.072-1.652L25.312,10.3H16.968l.112.392h4.452V19.8H16.058l.112.392H28.924c.224,0,.378-.07.42-.224-.77-.672-2.086-1.666-2.086-1.666Zm18.256-2.73c.21,0,.35-.07.392-.224-.644-.546-1.694-1.316-1.694-1.316l-.938,1.148H39.074a8.115,8.115,0,0,0,.266-1.666h3.892c.2,0,.35-.07.392-.224-.63-.532-1.652-1.288-1.652-1.288l-.91,1.12H39.354v-1.61H43.12c.2,0,.35-.07.392-.224-.35-.294-.826-.658-1.176-.924A10.615,10.615,0,0,0,44.6,10.788c.308-.014.434-.056.546-.168l-1.68-1.6-.98.98H39.382V8.6c.392-.07.49-.21.5-.406l-2.6-.182V10H34.244a4.853,4.853,0,0,0-.392-1.148H33.7a1.761,1.761,0,0,1-.952,1.526,1.143,1.143,0,0,0-.77,1.386,1.085,1.085,0,0,0,1.568.6,1.939,1.939,0,0,0,.77-1.974h8.26a11.772,11.772,0,0,1-.35,1.386l-.378-.28-.91,1.12H39.354V11.488c.35-.056.462-.2.49-.378l-2.52-.238v1.75H33.446l.112.392h3.766v1.61H33.432l.112.392H37.31a8.1,8.1,0,0,1-.238,1.666H32l.112.392h4.83c-.588,1.666-2.016,3.094-5.152,4.116l.042.14c4.466-.686,6.37-2.268,7.1-4.256h.2c.756,2.45,2.226,3.514,4.438,4.284a2.345,2.345,0,0,1,1.512-1.946v-.168c-2.24-.168-4.536-.616-5.656-2.17Zm4.886-9.058c-.154.924-.364,1.974-.56,2.744a4.5,4.5,0,0,0-1.2-.322l-.126.07a5.041,5.041,0,0,1,.924,2.128c1.106.826,2.212-.672.868-1.624A12.527,12.527,0,0,0,51.058,9.08c.308,0,.5-.126.56-.294Zm2.016,8.274V14.666l.224-.084a5.494,5.494,0,0,1,.112,1.064c1.33,1.3,3.108-1.33-.42-2.492l-.14.056a7.315,7.315,0,0,1,.336.938l-1.708.042A29.972,29.972,0,0,0,52.57,10.8c.322.028.49-.084.56-.252l-2.3-.756a41.364,41.364,0,0,1-1.778,4.4H47.348L47.922,16a.565.565,0,0,0,.42-.308c.392-.126.756-.252,1.092-.364v1.218l-1.484-.294a13.9,13.9,0,0,1-.616,3.948l.2.112a6.978,6.978,0,0,0,1.9-3.136v4.172h.336a1.875,1.875,0,0,0,1.484-.49v-4.34a7.255,7.255,0,0,1,.42,2.408c1.246,1.288,2.94-1.218-.336-2.66Zm6.776-2.464V14.89H55.4V13.826ZM55.4,16.36V15.282H58.03V16.36Zm0,1.5V16.752H58.03v1.106Zm0,.392H58.03V18.8h.35a3.25,3.25,0,0,0,1.61-.448v-4.3a.67.67,0,0,0,.434-.238l-1.68-1.26-.84.882H55.468l-1.96-.77v6.384h.28a3.083,3.083,0,0,0,1.386-.364A10.382,10.382,0,0,1,52,21.19l.056.154a12.673,12.673,0,0,0,4.424-1.386c.462.1.728.028.84-.14l-2-1.232a.2.2,0,0,0,.084-.126Zm1.54.77a3.506,3.506,0,0,1,1.806,1.834c1.274,1.568,4.438-1.75-1.736-2Zm.616-6.9v-1.05H59.22l-.854,1.05Zm0-2.352h1.428l-.728.91h-.7Zm2.59,1.3c.2,0,.336-.07.378-.224-.434-.392-1.092-.882-1.358-1.078h1.12c.2,0,.336-.07.378-.224C60.06,9.024,59.08,8.3,59.08,8.3l-.868,1.078h-.658V8.7c.392-.056.476-.2.5-.392l-2.534-.2v1.26H52.878l.112.392h2.534v.91H53.242l.112.392h2.17v1.05H52.57l.112.392h7.77c.21,0,.35-.07.392-.224-.518-.448-1.316-1.05-1.54-1.218Z" transform="translate(54 48)" fill="#fff"/></g><g transform="matrix(1, 0, 0, 1, 189, 426)" filter="url(#f)"><path d="M5.856-10.736a11.142,11.142,0,0,1,2.032,3.76C9.776-5.616,11.264-9.344,6-10.832ZM8.464-4.1c-1.344.416-2.736.816-4,1.152l-.144-9.1c.448-.064.56-.24.576-.464l-2.512-.176.16,10.256c-.9.224-1.648.384-2.176.48L1.392.208a.788.788,0,0,0,.416-.432,54.2,54.2,0,0,0,6.7-3.68Zm3.392-8.544c-.1,6.32-.4,10.4-7.936,13.808l.144.256c3.776-1.04,6.08-2.4,7.488-4.1a14.073,14.073,0,0,1,2.24,3.6c1.952,1.232,3.184-2.352-1.776-4.208,1.568-2.3,1.76-5.184,1.92-8.64a.6.6,0,0,0,.608-.48ZM30.192.112h-3.76V-6.864h5.392c.224,0,.384-.08.432-.256-.768-.688-2.048-1.664-2.048-1.664L29.056-7.312H26.432v-5.36c.432-.064.544-.224.592-.448l-2.656-.256V.112H18.416l.128.448H32.992c.24,0,.416-.08.464-.256-.8-.672-2.1-1.68-2.1-1.68Z" transform="translate(68 130)" fill="#fff"/></g><g transform="translate(226.12 500.4)"><g transform="translate(0 0)"><g transform="matrix(1, 0, 0, 1, -37.12, -74.4)" filter="url(#h)"><path d="M7.378-4.424v-1.54H8.61v1.54ZM8.61-7.882v1.526H7.378V-7.882Zm2.8,0v1.526H10.136V-7.882ZM10.136-4.424v-1.54H11.41v1.54Zm-6.1-3.612H5.726a.709.709,0,0,0,.182-.028v2.576A3.1,3.1,0,0,0,4.032-6.734Zm7.378,4v.364h.266a2.715,2.715,0,0,0,1.288-.364V-7.616a1.03,1.03,0,0,0,.56-.294L12-9.072l-.728.8H10.136v-1.3h3.122c.2,0,.336-.07.364-.224-.518-.532-1.428-1.3-1.428-1.3l-.8,1.12h-1.26V-11.3c.392-.056.49-.2.518-.392L8.61-11.9v1.918H5.558l.112.406H8.61v1.3H7.574L5.908-8.9v.448C5.46-8.932,4.858-9.52,4.858-9.52l-.7,1.078H4.032v-2.814c.378-.056.476-.2.5-.406l-2.114-.21v3.43H.588L.7-8.036H2.254A16.669,16.669,0,0,1,.266-2.212l.168.154A11.394,11.394,0,0,0,2.422-4.48V1.246h.322c.6,0,1.288-.322,1.288-.476v-7.2a5.564,5.564,0,0,1,.756,1.988.729.729,0,0,0,1.12-.028v1.022h.266c.742,0,1.2-.322,1.2-.434v-.154h.686A9.682,9.682,0,0,1,4.578.238l.126.2A10.733,10.733,0,0,0,8.61-2.2V1.218H8.9c.574,0,1.232-.378,1.232-.56v-4.69h.028A7.822,7.822,0,0,0,12.5.294a1.866,1.866,0,0,1,1.26-1.5l.028-.14a6.747,6.747,0,0,1-3.318-2.688Z" transform="translate(130 102)" fill="#f1ff4d"/></g><g transform="matrix(1, 0, 0, 1, -37.12, -74.4)" filter="url(#j)"><path d="M6.84-3.54h6.12a5.765,5.765,0,0,0,1.32-.135A2.264,2.264,0,0,0,15.285-4.2a3.841,3.841,0,0,0,.795-1.065,10.263,10.263,0,0,0,.69-1.725h1.32L16.89,0H1.17V-1.38q3.57-3.06,5.85-5.3a35.307,35.307,0,0,0,3.585-3.99,11.893,11.893,0,0,0,1.8-3.24A9.66,9.66,0,0,0,12.9-16.98a5.445,5.445,0,0,0-.99-3.45,3.249,3.249,0,0,0-2.7-1.26,4,4,0,0,0-1.515.285,3.45,3.45,0,0,0-1.2.8,3.694,3.694,0,0,0-.78,1.23,4.2,4.2,0,0,0-.285,1.56A3.463,3.463,0,0,0,6.2-15.45a2.634,2.634,0,0,0,2.085.87,2.113,2.113,0,0,1-.825,1.38,2.634,2.634,0,0,1-1.635.51A4.455,4.455,0,0,1,4.1-13.02a4.1,4.1,0,0,1-1.38-.93A4.307,4.307,0,0,1,1.8-15.375a4.845,4.845,0,0,1-.33-1.815,5.075,5.075,0,0,1,.615-2.475A6.171,6.171,0,0,1,3.81-21.63a8.381,8.381,0,0,1,2.625-1.305A11.146,11.146,0,0,1,9.72-23.4a10.392,10.392,0,0,1,3.24.48,7.942,7.942,0,0,1,2.535,1.335,6,6,0,0,1,1.65,2.04,5.848,5.848,0,0,1,.585,2.625,7.993,7.993,0,0,1-.825,3.51,14.324,14.324,0,0,1-2.28,3.33,28.488,28.488,0,0,1-3.45,3.21q-2,1.59-4.365,3.18ZM19.23,3.39a12.374,12.374,0,0,0,2.385-1.95A2.6,2.6,0,0,0,22.38-.24a1.774,1.774,0,0,1-.4.165,1.751,1.751,0,0,1-.5.075A1.339,1.339,0,0,1,20.4-.57a2.113,2.113,0,0,1-.45-1.35,2.266,2.266,0,0,1,.645-1.65A2.153,2.153,0,0,1,22.2-4.23a2.083,2.083,0,0,1,1.68.75,3.072,3.072,0,0,1,.63,2.04,5.2,5.2,0,0,1-1.08,3.105A12.962,12.962,0,0,1,20.1,4.65ZM33.84-23.4a8.4,8.4,0,0,1,3.885.93,10.066,10.066,0,0,1,3.165,2.55,12.611,12.611,0,0,1,2.145,3.81,13.789,13.789,0,0,1,.8,4.74,12.935,12.935,0,0,1-.8,4.56A12.172,12.172,0,0,1,40.89-3.105a10.158,10.158,0,0,1-3.165,2.49A8.511,8.511,0,0,1,33.84.3a8.266,8.266,0,0,1-3.825-.915,10.1,10.1,0,0,1-3.12-2.49A12.107,12.107,0,0,1,24.78-6.81,13.158,13.158,0,0,1,24-11.37a14.029,14.029,0,0,1,.78-4.74,12.549,12.549,0,0,1,2.115-3.81,10.013,10.013,0,0,1,3.12-2.55A8.158,8.158,0,0,1,33.84-23.4Zm0,21.96a3.984,3.984,0,0,0,1.935-.465A3.714,3.714,0,0,0,37.23-3.51a10.189,10.189,0,0,0,.915-3.03,29.611,29.611,0,0,0,.315-4.74,32.65,32.65,0,0,0-.315-4.965,11.149,11.149,0,0,0-.915-3.195,3.986,3.986,0,0,0-1.455-1.71,3.7,3.7,0,0,0-1.935-.51,3.7,3.7,0,0,0-1.935.51,3.986,3.986,0,0,0-1.455,1.71,11.149,11.149,0,0,0-.915,3.195,32.65,32.65,0,0,0-.315,4.965,29.611,29.611,0,0,0,.315,4.74,10.189,10.189,0,0,0,.915,3.03A3.714,3.714,0,0,0,31.9-1.905,3.984,3.984,0,0,0,33.84-1.44ZM56.49-23.4a8.4,8.4,0,0,1,3.885.93,10.066,10.066,0,0,1,3.165,2.55,12.611,12.611,0,0,1,2.145,3.81,13.789,13.789,0,0,1,.795,4.74,12.935,12.935,0,0,1-.795,4.56A12.172,12.172,0,0,1,63.54-3.105a10.158,10.158,0,0,1-3.165,2.49A8.511,8.511,0,0,1,56.49.3a8.266,8.266,0,0,1-3.825-.915,10.1,10.1,0,0,1-3.12-2.49A12.107,12.107,0,0,1,47.43-6.81a13.158,13.158,0,0,1-.78-4.56,14.029,14.029,0,0,1,.78-4.74,12.549,12.549,0,0,1,2.115-3.81,10.013,10.013,0,0,1,3.12-2.55A8.158,8.158,0,0,1,56.49-23.4Zm0,21.96a3.984,3.984,0,0,0,1.935-.465A3.714,3.714,0,0,0,59.88-3.51a10.189,10.189,0,0,0,.915-3.03,29.611,29.611,0,0,0,.315-4.74,32.649,32.649,0,0,0-.315-4.965,11.149,11.149,0,0,0-.915-3.195,3.986,3.986,0,0,0-1.455-1.71,3.7,3.7,0,0,0-1.935-.51,3.7,3.7,0,0,0-1.935.51A3.986,3.986,0,0,0,53.1-19.44a11.149,11.149,0,0,0-.915,3.195,32.65,32.65,0,0,0-.315,4.965,29.611,29.611,0,0,0,.315,4.74A10.189,10.189,0,0,0,53.1-3.51a3.714,3.714,0,0,0,1.455,1.605A3.984,3.984,0,0,0,56.49-1.44ZM79.14-23.4a8.4,8.4,0,0,1,3.885.93,10.066,10.066,0,0,1,3.165,2.55,12.611,12.611,0,0,1,2.145,3.81,13.789,13.789,0,0,1,.795,4.74,12.935,12.935,0,0,1-.795,4.56A12.172,12.172,0,0,1,86.19-3.105a10.158,10.158,0,0,1-3.165,2.49A8.511,8.511,0,0,1,79.14.3a8.266,8.266,0,0,1-3.825-.915,10.1,10.1,0,0,1-3.12-2.49A12.107,12.107,0,0,1,70.08-6.81a13.158,13.158,0,0,1-.78-4.56,14.029,14.029,0,0,1,.78-4.74,12.549,12.549,0,0,1,2.115-3.81,10.013,10.013,0,0,1,3.12-2.55A8.158,8.158,0,0,1,79.14-23.4Zm0,21.96a3.984,3.984,0,0,0,1.935-.465A3.714,3.714,0,0,0,82.53-3.51a10.189,10.189,0,0,0,.915-3.03,29.611,29.611,0,0,0,.315-4.74,32.65,32.65,0,0,0-.315-4.965,11.149,11.149,0,0,0-.915-3.195,3.986,3.986,0,0,0-1.455-1.71,3.7,3.7,0,0,0-1.935-.51,3.7,3.7,0,0,0-1.935.51,3.986,3.986,0,0,0-1.455,1.71,11.149,11.149,0,0,0-.915,3.195,32.65,32.65,0,0,0-.315,4.965,29.611,29.611,0,0,0,.315,4.74,10.189,10.189,0,0,0,.915,3.03,3.714,3.714,0,0,0,1.455,1.605A3.984,3.984,0,0,0,79.14-1.44Z" transform="translate(37 103)" fill="#f1ff4d"/></g></g><path d="M90.461,1H0V-1H90.461Z" transform="translate(1.119 34.928)" fill="#f1ff4d"/></g><g transform="translate(211.68 494.312)"><g transform="translate(0 0)" clip-path="url(#l)"><path d="M38.635,0a.481.481,0,1,0,.481.481A.481.481,0,0,0,38.635,0" transform="translate(-30.814 0)" fill="#f1ff4d"/><path d="M38.635,1.962A1.481,1.481,0,1,1,40.116.481,1.483,1.483,0,0,1,38.635,1.962Z" transform="translate(-30.814 0)" fill="#f1ff4d"/><path d="M44.695,9.4a.382.382,0,1,0-.382.382.382.382,0,0,0,.382-.382" transform="translate(-35.48 -7.284)" fill="#f1ff4d"/><path d="M44.313,10.783A1.382,1.382,0,1,1,45.695,9.4,1.383,1.383,0,0,1,44.313,10.783Z" transform="translate(-35.48 -7.284)" fill="#f1ff4d"/><path d="M49.707,18.319a.283.283,0,1,0,.283-.283.283.283,0,0,0-.283.283" transform="translate(-40.145 -14.566)" fill="#f1ff4d"/><path d="M49.99,19.6a1.283,1.283,0,1,1,1.283-1.283A1.284,1.284,0,0,1,49.99,19.6Z" transform="translate(-40.145 -14.566)" fill="#f1ff4d"/><path d="M55.484,27.239a.184.184,0,1,0,.184-.184.184.184,0,0,0-.184.184" transform="translate(-44.811 -21.851)" fill="#f1ff4d"/><path d="M55.668,28.423a1.184,1.184,0,1,1,1.184-1.184A1.185,1.185,0,0,1,55.668,28.423Z" transform="translate(-44.811 -21.851)" fill="#f1ff4d"/><path d="M61.26,36.157a.085.085,0,1,0,.085-.085.085.085,0,0,0-.085.085" transform="translate(-49.476 -29.133)" fill="#f1ff4d"/><path d="M61.345,37.242a1.085,1.085,0,1,1,1.085-1.085A1.086,1.086,0,0,1,61.345,37.242Z" transform="translate(-49.476 -29.133)" fill="#f1ff4d"/><path d="M.962,19.044a.481.481,0,1,0-.481.481.481.481,0,0,0,.481-.481" transform="translate(0 -14.992)" fill="#f1ff4d"/><path d="M.481,20.525a1.481,1.481,0,1,1,1.481-1.481A1.483,1.483,0,0,1,.481,20.525Z" transform="translate(0 -14.992)" fill="#f1ff4d"/><path d="M9.662,24.843a.389.389,0,1,0-.389.389.389.389,0,0,0,.389-.389" transform="translate(-7.174 -19.75)" fill="#f1ff4d"/><path d="M9.272,26.233a1.389,1.389,0,1,1,1.389-1.389A1.391,1.391,0,0,1,9.272,26.233Z" transform="translate(-7.174 -19.75)" fill="#f1ff4d"/><path d="M18.065,30.94a.3.3,0,1,0-.3-.3.3.3,0,0,0,.3.3" transform="translate(-14.349 -24.507)" fill="#f1ff4d"/><path d="M18.065,31.94a1.3,1.3,0,1,1,1.3-1.3A1.3,1.3,0,0,1,18.065,31.94Z" transform="translate(-14.349 -24.507)" fill="#f1ff4d"/><path d="M26.856,36.235a.206.206,0,1,0,.206.206.206.206,0,0,0-.206-.206" transform="translate(-21.523 -29.265)" fill="#f1ff4d"/><path d="M26.856,37.647a1.206,1.206,0,1,1,1.206-1.206A1.208,1.208,0,0,1,26.856,37.647Z" transform="translate(-21.523 -29.265)" fill="#f1ff4d"/><path d="M35.648,42.125a.115.115,0,1,0,.115.115.115.115,0,0,0-.115-.115" transform="translate(-28.698 -34.022)" fill="#f1ff4d"/><path d="M35.648,43.354a1.115,1.115,0,1,1,1.115-1.115A1.116,1.116,0,0,1,35.648,43.354Z" transform="translate(-28.698 -34.022)" fill="#f1ff4d"/><path d="M44.417,48.039a.023.023,0,1,0,.023-.023.023.023,0,0,0-.023.023" transform="translate(-35.873 -38.779)" fill="#f1ff4d"/><path d="M44.44,49.062a1.023,1.023,0,1,1,1.023-1.023A1.024,1.024,0,0,1,44.44,49.062Z" transform="translate(-35.873 -38.779)" fill="#f1ff4d"/><path d="M1.773,66a.481.481,0,1,0-.481-.481A.481.481,0,0,0,1.773,66" transform="translate(-1.043 -52.528)" fill="#f1ff4d"/><path d="M1.773,67A1.481,1.481,0,1,1,3.254,65.52,1.483,1.483,0,0,1,1.773,67Z" transform="translate(-1.043 -52.528)" fill="#f1ff4d"/><path d="M11.987,68.509a.373.373,0,1,0-.374-.374.374.374,0,0,0,.374.374" transform="translate(-9.379 -54.727)" fill="#f1ff4d"/><path d="M11.987,69.509a1.373,1.373,0,1,1,1.374-1.374A1.375,1.375,0,0,1,11.987,69.509Z" transform="translate(-9.379 -54.727)" fill="#f1ff4d"/><path d="M22.2,70.484a.266.266,0,1,0,.266.266.266.266,0,0,0-.266-.266" transform="translate(-17.715 -56.925)" fill="#f1ff4d"/><path d="M22.2,72.016a1.266,1.266,0,1,1,1.266-1.266A1.268,1.268,0,0,1,22.2,72.016Z" transform="translate(-17.715 -56.925)" fill="#f1ff4d"/><path d="M32.415,73.207a.159.159,0,1,0,.159.159.159.159,0,0,0-.159-.159" transform="translate(-26.051 -59.124)" fill="#f1ff4d"/><path d="M32.415,74.524a1.159,1.159,0,1,1,1.159-1.159A1.16,1.16,0,0,1,32.415,74.524Z" transform="translate(-26.051 -59.124)" fill="#f1ff4d"/><path d="M42.577,75.981a.051.051,0,1,0,.051-.051.051.051,0,0,0-.051.051" transform="translate(-34.387 -61.324)" fill="#f1ff4d"/><path d="M42.628,77.033a1.051,1.051,0,1,1,1.051-1.051A1.053,1.053,0,0,1,42.628,77.033Z" transform="translate(-34.387 -61.324)" fill="#f1ff4d"/></g></g></g></g></svg>