<svg xmlns="http://www.w3.org/2000/svg" xmlns:xlink="http://www.w3.org/1999/xlink" width="218" height="218" viewBox="0 0 218 218">
  <defs>
    <linearGradient id="linear-gradient" x1="0.838" y1="0.775" x2="0.165" y2="0.117" gradientUnits="objectBoundingBox">
      <stop offset="0" stop-color="#5298d6"/>
      <stop offset="1" stop-color="#64b6ff"/>
    </linearGradient>
    <filter id="楕円形_12" x="0" y="0" width="218" height="218" filterUnits="userSpaceOnUse">
      <feOffset dy="3" input="SourceAlpha"/>
      <feGaussianBlur stdDeviation="3" result="blur"/>
      <feFlood flood-opacity="0.161"/>
      <feComposite operator="in" in2="blur"/>
      <feComposite in="SourceGraphic"/>
    </filter>
    <filter id="パス_2131" x="35.296" y="39.272" width="146.288" height="60.377" filterUnits="userSpaceOnUse">
      <feOffset input="SourceAlpha"/>
      <feGaussianBlur stdDeviation="3" result="blur-2"/>
      <feFlood flood-opacity="0.161"/>
      <feComposite operator="in" in2="blur-2"/>
      <feComposite in="SourceGraphic"/>
    </filter>
    <filter id="パス_2134" x="82.46" y="147.28" width="59.36" height="36.5" filterUnits="userSpaceOnUse">
      <feOffset input="SourceAlpha"/>
      <feGaussianBlur stdDeviation="3" result="blur-3"/>
      <feFlood flood-opacity="0.161"/>
      <feComposite operator="in" in2="blur-3"/>
      <feComposite in="SourceGraphic"/>
    </filter>
    <filter id="パス_2132" x="159.361" y="107.85" width="36.354" height="35.841" filterUnits="userSpaceOnUse">
      <feOffset input="SourceAlpha"/>
      <feGaussianBlur stdDeviation="3" result="blur-4"/>
      <feFlood flood-opacity="0.161"/>
      <feComposite operator="in" in2="blur-4"/>
      <feComposite in="SourceGraphic"/>
    </filter>
    <filter id="パス_2133" x="38.56" y="94.8" width="135.28" height="55.4" filterUnits="userSpaceOnUse">
      <feOffset input="SourceAlpha"/>
      <feGaussianBlur stdDeviation="3" result="blur-5"/>
      <feFlood flood-opacity="0.161"/>
      <feComposite operator="in" in2="blur-5"/>
      <feComposite in="SourceGraphic"/>
    </filter>
    <clipPath id="clip-path">
      <rect id="長方形_25104" data-name="長方形 25104" width="15.73" height="19.354" fill="#f1ff4d" stroke="#f1ff4d" stroke-linecap="round" stroke-width="2"/>
    </clipPath>
  </defs>
  <g id="グループ_11301" data-name="グループ 11301" transform="translate(-1575 -219)">
    <g transform="matrix(1, 0, 0, 1, 1575, 219)" filter="url(#楕円形_12)">
      <circle id="楕円形_12-2" data-name="楕円形 12" cx="100" cy="100" r="100" transform="translate(9 6)" fill="url(#linear-gradient)"/>
    </g>
    <g transform="matrix(1, 0, 0, 1, 1575, 219)" filter="url(#パス_2131)">
      <path id="パス_2131-2" data-name="パス 2131" d="M-59.632-4.464V-4.88h2.544c.224,0,.384-.08.432-.256-.592-.592-1.6-1.456-1.6-1.456l-.9,1.264h-.48v-1.2c.368-.048.48-.208.5-.384l-2.688-.24v1.824H-64.5l.128.448h2.144A13.09,13.09,0,0,1-64.7-.048l.16.176a12.961,12.961,0,0,0,2.72-2.064V1.52h.4c.816,0,1.792-.4,1.792-.576V-4.368a4.814,4.814,0,0,1,.8,2.384c1.616,1.328,3.472-1.792-.7-2.528Zm7.12-3.472h-1.7v-3.136a20.946,20.946,0,0,0,3.6-.72c.544.16.88.112,1.072-.064l-2.32-1.84a14.305,14.305,0,0,1-2.416,2l-2.16-.672v4.512c-.624-.592-1.488-1.328-1.488-1.328l-.944,1.328h-1.184a16.684,16.684,0,0,0,2.192-2.208c.352.032.528-.1.592-.288l-2.1-.64h2.144c.224,0,.384-.08.432-.256-.608-.592-1.648-1.456-1.648-1.456l-.912,1.264h-.176v-1.52c.448-.064.56-.224.576-.448l-2.816-.208v2.176H-64.4l.128.448h.992a7.377,7.377,0,0,1,.464,2.64c1.376,1.44,3.36-1.216-.144-2.64h3.168a26.512,26.512,0,0,1-.624,3.136h-4.24l.128.448h7.872a.944.944,0,0,0,.224-.032v.512c0,2.928-.192,5.92-2.208,8.272l.144.16c4-2.08,4.288-5.472,4.288-8.368v-.624h1.072V1.5h.416A2.337,2.337,0,0,0-50.864.9V-7.488h1.12c.224,0,.416-.08.448-.256-.752-.72-2.064-1.808-2.064-1.808Zm17.888,3.36L-35.648-3.3h-3.3v-.848c.448-.064.56-.224.592-.448L-40.784-4.8A3.315,3.315,0,0,0-38.5-7.312a3.5,3.5,0,0,1,.256,1.328,1.01,1.01,0,0,0,1.5-.032c.016,1.072.176,1.44,1.456,1.44Zm-3.024-6.88a4.071,4.071,0,0,1,.5,1.616,1.4,1.4,0,0,0,.608.288l-.368.4H-38.16l-2.112-.72A8.394,8.394,0,0,0-38.1-11.456Zm.912,4.352a2.7,2.7,0,0,0-1.728-.864V-8.7h1.728Zm3.6,4.256c.24,0,.416-.08.448-.256-.656-.576-1.728-1.344-1.9-1.472h.08c1.5,0,2.176-.416,2.176-1.136a.71.71,0,0,0-.5-.768l-.048-1.568h-.16a12.564,12.564,0,0,1-.624,1.52.3.3,0,0,1-.272.144h-.688c-.176,0-.208-.032-.208-.208V-8.56a.8.8,0,0,0,.5-.24l-1.232-1.008c.464-.416.48-1.184-.544-1.648h3.1c.224,0,.4-.08.448-.256-.72-.624-1.888-1.52-1.888-1.52l-1.04,1.328H-37.7a7.411,7.411,0,0,0,.512-.672.61.61,0,0,0,.64-.352l-2.688-.8a12.554,12.554,0,0,1-.672,1.936c-.608-.576-1.584-1.392-1.584-1.392l-.928,1.28h-1.376l.336-.48c.368.048.576-.08.656-.272l-2.64-1.056a12.216,12.216,0,0,1-2.256,4.5l.16.144a9.077,9.077,0,0,0,3.376-2.384h.144A3.336,3.336,0,0,1-43.7-9.9a1.261,1.261,0,0,0,.9.352l-.544.656h-3.632l.128.448h1.7v2.256c-.944.1-1.712.176-2.208.208l1.04,2.128a.657.657,0,0,0,.448-.384c2.352-.976,3.92-1.712,4.976-2.272l-.032-.192c-.72.1-1.456.192-2.144.272V-8.448H-41.1c.24,0,.4-.08.448-.256-.464-.384-1.1-.864-1.472-1.136.416-.4.432-1.136-.592-1.616h2.464a.944.944,0,0,0,.224-.032,9.323,9.323,0,0,1-1.1,1.792l.176.144c.144-.064.272-.112.416-.176V-7.84c0,1.2-.352,2.56-2.688,3.584l.08.16a11.084,11.084,0,0,0,1.936-.528V-3.3H-47.36l.128.448h4.256a10.937,10.937,0,0,1-4.752,4l.1.176a15.42,15.42,0,0,0,6.416-2.8V1.52h.384a3.232,3.232,0,0,0,1.888-.48V-2.736a7.728,7.728,0,0,0,4.768,4.08A2.64,2.64,0,0,1-32.448-.848l.032-.176A13.335,13.335,0,0,1-38.5-2.848ZM-23.12-6.08A1.926,1.926,0,0,0-25.04-8a1.926,1.926,0,0,0-1.92,1.92,1.926,1.926,0,0,0,1.92,1.92A1.926,1.926,0,0,0-23.12-6.08Zm17.168.128c.064-.96.16-3.232.224-4.144.032-.48.384-.688.384-1.136,0-.56-1.616-1.456-2.32-1.456a3.567,3.567,0,0,0-1.728.88l.016.24a5.284,5.284,0,0,1,.96.432c.3.192.336.336.368.768A41.653,41.653,0,0,1-8.08-5.92C-8.352-2.816-10-.736-12.992.928l.144.256C-8.72.176-6.192-2.064-5.952-5.952Zm-7.936-4.9a.787.787,0,0,1,.368.592c.1.688.1,2.448.1,3.264a11,11,0,0,1-.272,1.76c0,1.12.64,2.064,1.264,2.064.672,0,1.056-.432,1.056-1.392,0-1.312-.016-3.76.032-4.464.032-.688.448-.96.448-1.44,0-.672-1.728-1.584-2.5-1.584a3.386,3.386,0,0,0-1.456.464v.24A4.827,4.827,0,0,1-13.888-10.848Zm15.44-.528-.192.08a3.987,3.987,0,0,0,.064,1.216c.16.7,1.088,1.9,1.92,1.9.4,0,.848-.4,1.184-.512a26.42,26.42,0,0,1,5.2-1.056A.112.112,0,0,1,9.84-9.6C9.168-6.208,5.856-1.92,1.6.352L1.76.64a16.211,16.211,0,0,0,10.432-8.5c.272-.512,1.088-.848,1.088-1.488s-1.9-2.336-2.784-2.336c-.528,0-.72.368-1.5.544a44.188,44.188,0,0,1-5.872.576A2.329,2.329,0,0,1,1.552-11.376ZM22.656-9.2a2.839,2.839,0,0,1,.688.48.739.739,0,0,1,.224.592c.016.352.032.9.032,1.28a33.291,33.291,0,0,1-3.84.416,1.972,1.972,0,0,1-1.28-.48l-.1.064a2.019,2.019,0,0,0,.128.832c.16.448.912,1.36,1.456,1.36A10.468,10.468,0,0,0,21.5-5.1c.352-.1.736-.208,1.2-.3A14.457,14.457,0,0,1,17.488-.032l.1.144a12.552,12.552,0,0,0,6.048-3.6c.016,1.008.016,1.76,0,2.064-.016.208-.112.32-.3.32-.448,0-1.008-.016-1.68-.08l-.032.176a5.275,5.275,0,0,1,1.328.9c.512.5.512,1.072,1.12,1.072.592,0,1.328-.848,1.328-1.856,0-.7-.08-1.392-.1-1.7-.048-.864-.064-2.192-.08-3.1a20.194,20.194,0,0,1,2.576.144.621.621,0,0,0,.656-.656c0-.464-1.216-1.264-1.824-1.264a9.926,9.926,0,0,1-1.36.416,8.045,8.045,0,0,1,.144-.864c.08-.352.32-.48.32-.752,0-.336-.944-1.04-1.84-1.04a2.74,2.74,0,0,0-1.248.4ZM33.312-7.6A2.74,2.74,0,0,0,33.3-6.208c.336.912,1.44,2.064,2.176,2.064.672,0,.944-.448,2.224-.576,1.248-.128,4.352-.352,5.664-.352,1.216,0,1.776.048,2.448.048.736,0,1.248-.24,1.248-.8,0-.816-.9-1.44-2.032-1.44-.384,0-1.248.16-2.32.256-1.088.1-5.52.4-7.376.4-.944,0-1.232-.4-1.776-1.072ZM58.56-6.112a8.8,8.8,0,0,1,1.792,2.688c-1.424.176-3.728.4-5.52.544,1.2-1.9,2.448-4.08,3.264-5.5.352-.624,1.008-.992,1.008-1.424,0-.528-1.184-1.648-2.32-2a4.528,4.528,0,0,0-1.44-.16l-.064.176a2.386,2.386,0,0,1,.7,1.52c0,.992-1.552,5.152-2.672,7.52-.576.048-.976.08-1.072.08a2.592,2.592,0,0,1-1.28-.608l-.224.1a3.372,3.372,0,0,0-.128.848C50.608-1.488,51.776,0,52.672,0c.368,0,.928-.576,1.3-.672,1.024-.336,4.56-1.056,6.768-1.664C61.264-.688,61.2.032,62.24.032a1.357,1.357,0,0,0,1.344-1.5c0-2.3-2.256-4-4.864-4.832ZM-50.286,26.626V22.665h5.542v3.961Zm5.355-4.437H-50.15l-2.737-1.037V28.6h.374c1.071,0,2.227-.561,2.227-.8v-.7h5.542v1.309h.442a4.992,4.992,0,0,0,2.176-.544v-4.76a1.31,1.31,0,0,0,.714-.391l-2.363-1.8Zm-2.244-2.907H-51.51l.136.476h7.327c.255,0,.442-.085.493-.272-.867-.782-2.329-1.921-2.329-1.921Zm-2.006-6.851c-.612,2.414-3.536,5.933-6.477,7.786l.1.187c3.519-1.224,7.106-3.825,8.721-6.494a10.063,10.063,0,0,0,5.525,5.814A2.925,2.925,0,0,1-39.474,17.4v-.272c-2.431-.476-5.576-1.377-7.106-3.417.6-.051.816-.17.9-.408Zm19.04,1.819c.238,0,.408-.085.459-.272-.663-.612-1.785-1.479-1.785-1.479l-.969,1.275h-3.383l.136.476Zm-1.445,1.683h-5.049l.136.476h7.225c.238,0,.425-.085.459-.272-.663-.612-1.785-1.5-1.785-1.5Zm-.782,2.227H-35.9l.136.476h5.695c.238,0,.425-.085.459-.272-.663-.612-1.768-1.479-1.768-1.479Zm0,2.227H-35.9l.136.476h5.695c.238,0,.425-.085.459-.272-.663-.612-1.768-1.479-1.768-1.479Zm-1.377,6.307V23.226H-32.2v3.468Zm1.377-3.944h-1.309l-2.244-.867v6.732h.306c.918,0,1.87-.476,1.87-.68V27.17H-32.2v1.088h.391a3.516,3.516,0,0,0,1.887-.595V23.6a1.1,1.1,0,0,0,.68-.374l-2.108-1.6Zm9.01-4.131h-.51V13.4c.527-.085.663-.272.7-.544l-3.162-.306v6.069h-3.111l.136.476h2.975v9.52h.459c.952,0,2.006-.595,2.006-.85v-8.67h3.145c.238,0,.425-.085.476-.272-.714-.731-1.989-1.87-1.989-1.87Zm12.8,2.618c.017-.51.034-1.054.051-1.649a1.039,1.039,0,0,0,.714-.323L-11.713,17.6l-1.156,1.139h-.663c.034-.731.051-1.479.068-2.244h3.57a13.549,13.549,0,0,1-.867,1.853l.17.119a10.835,10.835,0,0,0,.935-.595V20.88ZM-12.7,19.214c-.119,4.386-.34,6.341-.8,6.749a.67.67,0,0,1-.527.187c-.289,0-.918-.034-1.377-.051a14.311,14.311,0,0,0,1.853-6.885Zm8.551-.068c0,2.431-.017,3.264-.187,3.451-.051.068-.136.1-.34.1h-.374V19.52Zm1.955,5.372H-2.38a5.431,5.431,0,0,1-.748,1.53.78.78,0,0,1-.544.187c-.272.017-.833.034-1.479.034H-6.936c-.629,0-.782-.119-.782-.459v-5.2l.833-.34v5.117h.34c.7,0,1.5-.34,1.5-.493v-1.8a1.02,1.02,0,0,1,.272.323,2.728,2.728,0,0,1,.187,1.309,2.627,2.627,0,0,0,1.666-.476c.646-.493.731-1.343.731-4.76a1,1,0,0,0,.646-.289l-1.768-1.445-.986.935-.119.051-.629.255V17.14c.442-.068.561-.238.595-.476l-2.431-.221v3.3l-.833.34V18.313c.391-.068.544-.238.578-.459l-2.21-.2A10.235,10.235,0,0,0-7.8,16.1h5.984c.255,0,.442-.085.493-.272-.8-.748-2.193-1.87-2.193-1.87l-1.224,1.666h-2.7a11.847,11.847,0,0,0,1.071-1.836c.391,0,.612-.136.7-.357l-3.179-.969a19.068,19.068,0,0,1-.8,3.332c-.748-.7-1.649-1.479-1.649-1.479l-1.173,1.7h-.153v-2.8c.408-.068.527-.221.544-.425L-15.1,12.55v3.468h-2.516l.136.476h1.683c-.017,4.165.1,8.262-2.04,11.832l.2.221a9.993,9.993,0,0,0,2.091-2.261A1.817,1.817,0,0,1-14.365,27a2.65,2.65,0,0,1,.255,1.5,3.192,3.192,0,0,0,2.244-.731c.782-.7,1.105-2.074,1.292-5.984l.918-.374v4.981c0,1.5.527,1.836,2.38,1.836h1.938c3.179,0,3.978-.425,3.978-1.309,0-.374-.187-.612-.765-.833Zm15.861,2.244H10.846V15.695h5.27c.255,0,.459-.085.51-.272-.952-.8-2.516-2.006-2.516-2.006l-1.394,1.8H2.584l.136.476H8.126V26.762H1.479l.136.476H17.1c.272,0,.459-.085.51-.272-.935-.816-2.533-2.023-2.533-2.023Zm22.168-3.315c.255,0,.425-.085.476-.272-.782-.663-2.057-1.6-2.057-1.6l-1.139,1.394H29.427a9.854,9.854,0,0,0,.323-2.023h4.726c.238,0,.425-.085.476-.272-.765-.646-2.006-1.564-2.006-1.564l-1.105,1.36H29.767V18.517H34.34c.238,0,.425-.085.476-.272-.425-.357-1-.8-1.428-1.122a12.89,12.89,0,0,0,2.754-1.309c.374-.017.527-.068.663-.2l-2.04-1.938-1.19,1.19H29.8v-1.7c.476-.085.595-.255.612-.493l-3.162-.221v2.414H23.562a5.892,5.892,0,0,0-.476-1.394H22.9a2.139,2.139,0,0,1-1.156,1.853A1.388,1.388,0,0,0,20.808,17a1.317,1.317,0,0,0,1.9.731,2.355,2.355,0,0,0,.935-2.4h10.03a14.3,14.3,0,0,1-.425,1.683l-.459-.34-1.105,1.36H29.767V16.664c.425-.068.561-.238.595-.459l-3.06-.289v2.125H22.593l.136.476H27.3v1.955H22.576l.136.476h4.573A9.839,9.839,0,0,1,27,22.971H20.842l.136.476h5.865c-.714,2.023-2.448,3.757-6.256,5l.051.17c5.423-.833,7.735-2.754,8.619-5.168H29.5c.918,2.975,2.7,4.267,5.389,5.2a2.848,2.848,0,0,1,1.836-2.363v-.2c-2.72-.2-5.508-.748-6.868-2.635Zm5.933-11c-.187,1.122-.442,2.4-.68,3.332a5.461,5.461,0,0,0-1.462-.391l-.153.085A6.122,6.122,0,0,1,40.6,18.058c1.343,1,2.686-.816,1.054-1.972a15.211,15.211,0,0,0,2.329-2.346c.374,0,.612-.153.68-.357ZM44.217,22.5V20.523l.272-.1a6.671,6.671,0,0,1,.136,1.292c1.615,1.581,3.774-1.615-.51-3.026l-.17.068a8.882,8.882,0,0,1,.408,1.139c-.714.017-1.428.034-2.074.051a36.394,36.394,0,0,0,3.536-4.114c.391.034.6-.1.68-.306l-2.788-.918a50.228,50.228,0,0,1-2.159,5.338H39.474l.7,2.193a.686.686,0,0,0,.51-.374c.476-.153.918-.306,1.326-.442V22.8l-1.8-.357a16.88,16.88,0,0,1-.748,4.794l.238.136a8.473,8.473,0,0,0,2.312-3.808v5.066h.408a2.276,2.276,0,0,0,1.8-.595v-5.27a8.809,8.809,0,0,1,.51,2.924c1.513,1.564,3.57-1.479-.408-3.23ZM52.445,19.5V20.8h-3.2V19.5Zm-3.2,3.077V21.271h3.2V22.58Zm0,1.819V23.056h3.2V24.4Zm0,.476h3.2v.663h.425a3.946,3.946,0,0,0,1.955-.544V19.775a.813.813,0,0,0,.527-.289l-2.04-1.53-1.02,1.071H49.334l-2.38-.935v7.752h.34a3.744,3.744,0,0,0,1.683-.442,12.607,12.607,0,0,1-3.859,3.043l.068.187a15.388,15.388,0,0,0,5.372-1.683c.561.119.884.034,1.02-.17l-2.431-1.5a.238.238,0,0,0,.1-.153Zm1.87.935a4.257,4.257,0,0,1,2.193,2.227c1.547,1.9,5.389-2.125-2.108-2.431Zm.748-8.381V16.154H53.89l-1.037,1.275Zm0-2.856H53.6l-.884,1.1h-.85Zm3.145,1.581c.238,0,.408-.085.459-.272-.527-.476-1.326-1.071-1.649-1.309h1.36c.238,0,.408-.085.459-.272-.731-.629-1.921-1.513-1.921-1.513L52.666,14.1h-.8v-.816c.476-.068.578-.238.612-.476L49.4,12.567V14.1H46.189l.136.476H49.4v1.1H46.631l.136.476H49.4v1.275H45.815l.136.476h9.435c.255,0,.425-.085.476-.272-.629-.544-1.6-1.275-1.87-1.479Z" transform="translate(109 62)" fill="#fff"/>
    </g>
    <g transform="matrix(1, 0, 0, 1, 1575, 219)" filter="url(#パス_2134)">
      <path id="パス_2134-2" data-name="パス 2134" d="M7.32-13.42a13.927,13.927,0,0,1,2.54,4.7c2.36,1.7,4.22-2.96-2.36-4.82Zm3.26,8.3c-1.68.52-3.42,1.02-5,1.44L5.4-15.06c.56-.08.7-.3.72-.58l-3.14-.22.2,12.82c-1.12.28-2.06.48-2.72.6L1.74.26a.985.985,0,0,0,.52-.54,67.748,67.748,0,0,0,8.38-4.6ZM14.82-15.8c-.12,7.9-.5,13-9.92,17.26l.18.32c4.72-1.3,7.6-3,9.36-5.12a17.591,17.591,0,0,1,2.8,4.5c2.44,1.54,3.98-2.94-2.22-5.26,1.96-2.88,2.2-6.48,2.4-10.8a.75.75,0,0,0,.76-.6ZM37.74.14h-4.7V-8.58h6.74c.28,0,.48-.1.54-.32-.96-.86-2.56-2.08-2.56-2.08L36.32-9.14H33.04v-6.7c.54-.08.68-.28.74-.56l-3.32-.32V.14H23.02l.16.56H41.24c.3,0,.52-.1.58-.32-1-.84-2.62-2.1-2.62-2.1Z" transform="translate(91 173)" fill="#fff"/>
    </g>
    <g transform="matrix(1, 0, 0, 1, 1575, 219)" filter="url(#パス_2132)">
      <path id="パス_2132-2" data-name="パス 2132" d="M10.013-6v-2.09h1.672V-6ZM11.685-10.7v2.071H10.013V-10.7Zm3.8,0v2.071H13.756V-10.7ZM13.756-6v-2.09h1.729V-6Zm-8.284-4.9h2.3a.963.963,0,0,0,.247-.038v3.5A4.2,4.2,0,0,0,5.472-9.139ZM15.485-5.472v.494h.361a3.685,3.685,0,0,0,1.748-.494v-4.864a1.4,1.4,0,0,0,.76-.4l-2.071-1.577L15.3-11.229H13.756V-13h4.237c.266,0,.456-.1.494-.3-.7-.722-1.938-1.767-1.938-1.767l-1.083,1.52h-1.71v-1.786c.532-.076.665-.266.7-.532l-2.774-.285v2.6H7.543L7.7-13h3.99v1.767H10.279l-2.261-.855v.608c-.608-.646-1.425-1.444-1.425-1.444l-.95,1.463H5.472v-3.819c.513-.076.646-.266.684-.551l-2.869-.285v4.655H.8l.152.551H3.059A22.622,22.622,0,0,1,.361-3l.228.209a15.463,15.463,0,0,0,2.7-3.287V1.691h.437c.817,0,1.748-.437,1.748-.646V-8.721A7.551,7.551,0,0,1,6.5-6.023a.989.989,0,0,0,1.52-.038v1.387h.361c1.007,0,1.634-.437,1.634-.589v-.209h.931A13.139,13.139,0,0,1,6.213.323l.171.266a14.566,14.566,0,0,0,5.3-3.572V1.653h.4c.779,0,1.672-.513,1.672-.76V-5.472h.038A10.616,10.616,0,0,0,16.967.4a2.532,2.532,0,0,1,1.71-2.033l.038-.19a9.157,9.157,0,0,1-4.5-3.648Z" transform="translate(168 133)" fill="#f1ff4d"/>
    </g>
    <g transform="matrix(1, 0, 0, 1, 1575, 219)" filter="url(#パス_2133)">
      <path id="パス_2133-2" data-name="パス 2133" d="M9.12-4.72h8.16a7.687,7.687,0,0,0,1.76-.18,3.019,3.019,0,0,0,1.34-.7,5.121,5.121,0,0,0,1.06-1.42,13.684,13.684,0,0,0,.92-2.3h1.76L22.52,0H1.56V-1.84Q6.32-5.92,9.36-8.9a47.076,47.076,0,0,0,4.78-5.32,15.857,15.857,0,0,0,2.4-4.32,12.88,12.88,0,0,0,.66-4.1,7.26,7.26,0,0,0-1.32-4.6,4.332,4.332,0,0,0-3.6-1.68,5.338,5.338,0,0,0-2.02.38,4.6,4.6,0,0,0-1.6,1.06,4.926,4.926,0,0,0-1.04,1.64,5.6,5.6,0,0,0-.38,2.08A4.618,4.618,0,0,0,8.26-20.6a3.512,3.512,0,0,0,2.78,1.16,2.818,2.818,0,0,1-1.1,1.84,3.512,3.512,0,0,1-2.18.68,5.94,5.94,0,0,1-2.3-.44A5.467,5.467,0,0,1,3.62-18.6,5.743,5.743,0,0,1,2.4-20.5a6.46,6.46,0,0,1-.44-2.42,6.767,6.767,0,0,1,.82-3.3,8.228,8.228,0,0,1,2.3-2.62,11.175,11.175,0,0,1,3.5-1.74,14.862,14.862,0,0,1,4.38-.62,13.856,13.856,0,0,1,4.32.64,10.589,10.589,0,0,1,3.38,1.78,8,8,0,0,1,2.2,2.72,7.8,7.8,0,0,1,.78,3.5,10.657,10.657,0,0,1-1.1,4.68,19.1,19.1,0,0,1-3.04,4.44,37.984,37.984,0,0,1-4.6,4.28Q12.24-7.04,9.08-4.92ZM25.64,4.52a16.5,16.5,0,0,0,3.18-2.6A3.464,3.464,0,0,0,29.84-.32a2.366,2.366,0,0,1-.54.22,2.334,2.334,0,0,1-.66.1A1.786,1.786,0,0,1,27.2-.76a2.818,2.818,0,0,1-.6-1.8,3.022,3.022,0,0,1,.86-2.2,2.871,2.871,0,0,1,2.14-.88,2.778,2.778,0,0,1,2.24,1,4.1,4.1,0,0,1,.84,2.72,6.939,6.939,0,0,1-1.44,4.14A17.283,17.283,0,0,1,26.8,6.2ZM45.12-31.2a11.2,11.2,0,0,1,5.18,1.24,13.421,13.421,0,0,1,4.22,3.4,16.814,16.814,0,0,1,2.86,5.08,18.386,18.386,0,0,1,1.06,6.32,17.246,17.246,0,0,1-1.06,6.08,16.229,16.229,0,0,1-2.86,4.94A13.544,13.544,0,0,1,50.3-.82,11.348,11.348,0,0,1,45.12.4a11.022,11.022,0,0,1-5.1-1.22,13.468,13.468,0,0,1-4.16-3.32,16.142,16.142,0,0,1-2.82-4.94A17.544,17.544,0,0,1,32-15.16a18.7,18.7,0,0,1,1.04-6.32,16.731,16.731,0,0,1,2.82-5.08,13.351,13.351,0,0,1,4.16-3.4A10.878,10.878,0,0,1,45.12-31.2Zm0,29.28a5.312,5.312,0,0,0,2.58-.62,4.951,4.951,0,0,0,1.94-2.14,13.586,13.586,0,0,0,1.22-4.04,39.481,39.481,0,0,0,.42-6.32,43.533,43.533,0,0,0-.42-6.62,14.865,14.865,0,0,0-1.22-4.26A5.315,5.315,0,0,0,47.7-28.2a4.939,4.939,0,0,0-2.58-.68,4.939,4.939,0,0,0-2.58.68,5.315,5.315,0,0,0-1.94,2.28,14.865,14.865,0,0,0-1.22,4.26,43.533,43.533,0,0,0-.42,6.62,39.481,39.481,0,0,0,.42,6.32A13.586,13.586,0,0,0,40.6-4.68a4.951,4.951,0,0,0,1.94,2.14A5.312,5.312,0,0,0,45.12-1.92ZM75.32-31.2a11.2,11.2,0,0,1,5.18,1.24,13.421,13.421,0,0,1,4.22,3.4,16.814,16.814,0,0,1,2.86,5.08,18.386,18.386,0,0,1,1.06,6.32,17.246,17.246,0,0,1-1.06,6.08,16.229,16.229,0,0,1-2.86,4.94A13.544,13.544,0,0,1,80.5-.82,11.348,11.348,0,0,1,75.32.4a11.022,11.022,0,0,1-5.1-1.22,13.468,13.468,0,0,1-4.16-3.32,16.142,16.142,0,0,1-2.82-4.94,17.544,17.544,0,0,1-1.04-6.08,18.7,18.7,0,0,1,1.04-6.32,16.731,16.731,0,0,1,2.82-5.08,13.351,13.351,0,0,1,4.16-3.4A10.878,10.878,0,0,1,75.32-31.2Zm0,29.28a5.312,5.312,0,0,0,2.58-.62,4.951,4.951,0,0,0,1.94-2.14,13.586,13.586,0,0,0,1.22-4.04,39.481,39.481,0,0,0,.42-6.32,43.533,43.533,0,0,0-.42-6.62,14.865,14.865,0,0,0-1.22-4.26A5.315,5.315,0,0,0,77.9-28.2a4.939,4.939,0,0,0-2.58-.68,4.939,4.939,0,0,0-2.58.68,5.315,5.315,0,0,0-1.94,2.28,14.865,14.865,0,0,0-1.22,4.26,43.533,43.533,0,0,0-.42,6.62,39.481,39.481,0,0,0,.42,6.32A13.586,13.586,0,0,0,70.8-4.68a4.951,4.951,0,0,0,1.94,2.14A5.312,5.312,0,0,0,75.32-1.92Zm30.2-29.28a11.2,11.2,0,0,1,5.18,1.24,13.421,13.421,0,0,1,4.22,3.4,16.814,16.814,0,0,1,2.86,5.08,18.386,18.386,0,0,1,1.06,6.32,17.246,17.246,0,0,1-1.06,6.08,16.229,16.229,0,0,1-2.86,4.94A13.544,13.544,0,0,1,110.7-.82,11.348,11.348,0,0,1,105.52.4a11.022,11.022,0,0,1-5.1-1.22,13.468,13.468,0,0,1-4.16-3.32,16.142,16.142,0,0,1-2.82-4.94,17.544,17.544,0,0,1-1.04-6.08,18.7,18.7,0,0,1,1.04-6.32,16.731,16.731,0,0,1,2.82-5.08,13.351,13.351,0,0,1,4.16-3.4A10.878,10.878,0,0,1,105.52-31.2Zm0,29.28a5.312,5.312,0,0,0,2.58-.62,4.951,4.951,0,0,0,1.94-2.14,13.586,13.586,0,0,0,1.22-4.04,39.481,39.481,0,0,0,.42-6.32,43.533,43.533,0,0,0-.42-6.62,14.865,14.865,0,0,0-1.22-4.26,5.315,5.315,0,0,0-1.94-2.28,4.939,4.939,0,0,0-2.58-.68,4.939,4.939,0,0,0-2.58.68A5.315,5.315,0,0,0,101-25.92a14.865,14.865,0,0,0-1.22,4.26,43.533,43.533,0,0,0-.42,6.62,39.481,39.481,0,0,0,.42,6.32A13.586,13.586,0,0,0,101-4.68a4.951,4.951,0,0,0,1.94,2.14A5.312,5.312,0,0,0,105.52-1.92Z" transform="translate(46 135)" fill="#f1ff4d"/>
    </g>
    <path id="線_333" data-name="線 333" d="M119.027,1H0V-1H119.027Z" transform="translate(1622.473 360.957)" fill="#f1ff4d"/>
    <g id="グループ_10800" data-name="グループ 10800" transform="translate(1602 306.99)" clip-path="url(#clip-path)">
      <path id="パス_2108" data-name="パス 2108" d="M38.787,0a.633.633,0,1,0,.633.633A.633.633,0,0,0,38.787,0" transform="translate(-28.497 0)" fill="#f1ff4d"/>
      <path id="パス_2108_-_アウトライン" data-name="パス 2108 - アウトライン" d="M38.787,2.266A1.633,1.633,0,1,1,40.42.633,1.635,1.635,0,0,1,38.787,2.266Z" transform="translate(-28.497 0)" fill="#f1ff4d"/>
      <path id="パス_2109" data-name="パス 2109" d="M44.936,9.521a.5.5,0,1,0-.5.5.5.5,0,0,0,.5-.5" transform="translate(-32.811 -6.736)" fill="#f1ff4d"/>
      <path id="パス_2109_-_アウトライン" data-name="パス 2109 - アウトライン" d="M44.433,11.024a1.5,1.5,0,1,1,1.5-1.5A1.5,1.5,0,0,1,44.433,11.024Z" transform="translate(-32.811 -6.736)" fill="#f1ff4d"/>
      <path id="パス_2110" data-name="パス 2110" d="M49.707,18.408a.372.372,0,1,0,.372-.372.372.372,0,0,0-.372.372" transform="translate(-37.125 -13.471)" fill="#f1ff4d"/>
      <path id="パス_2110_-_アウトライン" data-name="パス 2110 - アウトライン" d="M50.079,19.781a1.372,1.372,0,1,1,1.372-1.372A1.374,1.374,0,0,1,50.079,19.781Z" transform="translate(-37.125 -13.471)" fill="#f1ff4d"/>
      <path id="パス_2111" data-name="パス 2111" d="M55.484,27.3a.242.242,0,1,0,.242-.242.242.242,0,0,0-.242.242" transform="translate(-41.44 -20.207)" fill="#f1ff4d"/>
      <path id="パス_2111_-_アウトライン" data-name="パス 2111 - アウトライン" d="M55.726,28.539A1.242,1.242,0,1,1,56.968,27.3,1.243,1.243,0,0,1,55.726,28.539Z" transform="translate(-41.44 -20.207)" fill="#f1ff4d"/>
      <path id="パス_2112" data-name="パス 2112" d="M61.26,36.184a.112.112,0,1,0,.112-.112.112.112,0,0,0-.112.112" transform="translate(-45.754 -26.942)" fill="#f1ff4d"/>
      <path id="パス_2112_-_アウトライン" data-name="パス 2112 - アウトライン" d="M61.372,37.3a1.112,1.112,0,1,1,1.112-1.112A1.113,1.113,0,0,1,61.372,37.3Z" transform="translate(-45.754 -26.942)" fill="#f1ff4d"/>
      <path id="パス_2113" data-name="パス 2113" d="M1.266,19.2a.633.633,0,1,0-.633.633.633.633,0,0,0,.633-.633" transform="translate(0 -13.864)" fill="#f1ff4d"/>
      <path id="パス_2113_-_アウトライン" data-name="パス 2113 - アウトライン" d="M.633,20.829A1.633,1.633,0,1,1,2.266,19.2,1.635,1.635,0,0,1,.633,20.829Z" transform="translate(0 -13.864)" fill="#f1ff4d"/>
      <path id="パス_2114" data-name="パス 2114" d="M9.908,24.966a.512.512,0,1,0-.512.512.512.512,0,0,0,.512-.512" transform="translate(-6.635 -18.264)" fill="#f1ff4d"/>
      <path id="パス_2114_-_アウトライン" data-name="パス 2114 - アウトライン" d="M9.4,26.479a1.512,1.512,0,1,1,1.512-1.512A1.514,1.514,0,0,1,9.4,26.479Z" transform="translate(-6.635 -18.264)" fill="#f1ff4d"/>
      <path id="パス_2115" data-name="パス 2115" d="M18.159,31.128a.392.392,0,1,0-.392-.392.392.392,0,0,0,.392.392" transform="translate(-13.27 -22.664)" fill="#f1ff4d"/>
      <path id="パス_2115_-_アウトライン" data-name="パス 2115 - アウトライン" d="M18.159,32.128a1.392,1.392,0,1,1,1.392-1.392A1.393,1.393,0,0,1,18.159,32.128Z" transform="translate(-13.27 -22.664)" fill="#f1ff4d"/>
      <path id="パス_2116" data-name="パス 2116" d="M26.921,36.235a.271.271,0,1,0,.271.271.271.271,0,0,0-.271-.271" transform="translate(-19.904 -27.063)" fill="#f1ff4d"/>
      <path id="パス_2116_-_アウトライン" data-name="パス 2116 - アウトライン" d="M26.921,37.778a1.271,1.271,0,1,1,1.271-1.271A1.273,1.273,0,0,1,26.921,37.778Z" transform="translate(-19.904 -27.063)" fill="#f1ff4d"/>
      <path id="パス_2117" data-name="パス 2117" d="M35.684,42.125a.151.151,0,1,0,.151.151.151.151,0,0,0-.151-.151" transform="translate(-26.539 -31.463)" fill="#f1ff4d"/>
      <path id="パス_2117_-_アウトライン" data-name="パス 2117 - アウトライン" d="M35.684,43.427a1.151,1.151,0,1,1,1.151-1.151A1.152,1.152,0,0,1,35.684,43.427Z" transform="translate(-26.539 -31.463)" fill="#f1ff4d"/>
      <path id="パス_2118" data-name="パス 2118" d="M44.417,48.046a.03.03,0,1,0,.03-.03.03.03,0,0,0-.03.03" transform="translate(-33.174 -35.862)" fill="#f1ff4d"/>
      <path id="パス_2118_-_アウトライン" data-name="パス 2118 - アウトライン" d="M44.447,49.077a1.03,1.03,0,1,1,1.03-1.03A1.031,1.031,0,0,1,44.447,49.077Z" transform="translate(-33.174 -35.862)" fill="#f1ff4d"/>
      <path id="パス_2119" data-name="パス 2119" d="M1.925,66.3a.633.633,0,1,0-.633-.633.633.633,0,0,0,.633.633" transform="translate(-0.965 -48.577)" fill="#f1ff4d"/>
      <path id="パス_2119_-_アウトライン" data-name="パス 2119 - アウトライン" d="M1.925,67.3a1.633,1.633,0,1,1,1.633-1.633A1.635,1.635,0,0,1,1.925,67.3Z" transform="translate(-0.965 -48.577)" fill="#f1ff4d"/>
      <path id="パス_2120" data-name="パス 2120" d="M12.1,68.745a.491.491,0,1,0-.492-.492.492.492,0,0,0,.492.492" transform="translate(-8.674 -50.61)" fill="#f1ff4d"/>
      <path id="パス_2120_-_アウトライン" data-name="パス 2120 - アウトライン" d="M12.1,69.745A1.491,1.491,0,1,1,13.6,68.253,1.493,1.493,0,0,1,12.1,69.745Z" transform="translate(-8.674 -50.61)" fill="#f1ff4d"/>
      <path id="パス_2121" data-name="パス 2121" d="M22.285,70.484a.35.35,0,1,0,.35.35.35.35,0,0,0-.35-.35" transform="translate(-16.383 -52.643)" fill="#f1ff4d"/>
      <path id="パス_2121_-_アウトライン" data-name="パス 2121 - アウトライン" d="M22.285,72.184a1.35,1.35,0,1,1,1.35-1.35A1.352,1.352,0,0,1,22.285,72.184Z" transform="translate(-16.383 -52.643)" fill="#f1ff4d"/>
      <path id="パス_2122" data-name="パス 2122" d="M32.465,73.207a.209.209,0,1,0,.209.209.209.209,0,0,0-.209-.209" transform="translate(-24.092 -54.677)" fill="#f1ff4d"/>
      <path id="パス_2122_-_アウトライン" data-name="パス 2122 - アウトライン" d="M32.465,74.625a1.209,1.209,0,1,1,1.209-1.209A1.21,1.21,0,0,1,32.465,74.625Z" transform="translate(-24.092 -54.677)" fill="#f1ff4d"/>
      <path id="パス_2123" data-name="パス 2123" d="M42.577,76a.067.067,0,1,0,.068-.068.068.068,0,0,0-.068.068" transform="translate(-31.8 -56.711)" fill="#f1ff4d"/>
      <path id="パス_2123_-_アウトライン" data-name="パス 2123 - アウトライン" d="M42.645,77.065A1.068,1.068,0,1,1,43.712,76,1.069,1.069,0,0,1,42.645,77.065Z" transform="translate(-31.8 -56.711)" fill="#f1ff4d"/>
    </g>
  </g>
</svg>
