<svg xmlns="http://www.w3.org/2000/svg" width="19.807" height="19.843" viewBox="0 0 19.807 19.843"><g transform="translate(0.982 1)"><rect width="18" height="18" transform="translate(-0.157 -0.157)" fill="#fcfcfc" opacity="0"/><g transform="translate(0.018 0)"><path d="M18.136,20.85c-.084,0-.168,0-.252-.011l-.018,0a18.823,18.823,0,0,1-8.159-2.9,18.582,18.582,0,0,1-5.673-5.674,18.8,18.8,0,0,1-2.9-8.2V4.05A2.79,2.79,0,0,1,3.907,1.007H6.613a2.8,2.8,0,0,1,2.763,2.4v.009a10.555,10.555,0,0,0,.572,2.3A2.8,2.8,0,0,1,9.32,8.656l0,0-.583.583A13.333,13.333,0,0,0,12.692,13.2l.582-.582,0,0a2.79,2.79,0,0,1,2.944-.628,10.486,10.486,0,0,0,2.295.572h.009a2.789,2.789,0,0,1,2.4,2.819v2.672a2.79,2.79,0,0,1-2.791,2.8Zm-.064-2a.79.79,0,0,0,.855-.79s0,0,0-.005V15.366q0-.013,0-.026a.789.789,0,0,0-.676-.8,12.493,12.493,0,0,1-2.73-.681.79.79,0,0,0-.835.176l-1.134,1.134a1,1,0,0,1-1.2.162A15.33,15.33,0,0,1,6.6,9.584a1,1,0,0,1,.162-1.2L7.9,7.247a.791.791,0,0,0,.175-.831,12.566,12.566,0,0,1-.681-2.732.794.794,0,0,0-.782-.677h-2.7a.79.79,0,0,0-.786.855,16.794,16.794,0,0,0,2.593,7.315l0,.007a16.568,16.568,0,0,0,5.064,5.065l.008,0A16.813,16.813,0,0,0,18.072,18.848Z" transform="translate(-2.12 -2.007)" fill="#fff"/></g></g></svg>