<svg width="361" height="52" viewBox="0 0 361 52" fill="none" xmlns="http://www.w3.org/2000/svg">
<g clip-path="url(#clip0_2_111736)">
<path d="M39.1506 51.2692H32.1986L6.95194 14.1646V51.2656H0V1.50342H6.95194L32.1986 38.6044V1.50342H39.1506V51.2656V51.2692Z" fill="white"/>
<path d="M63.5333 45.7797C68.7274 45.7797 71.2921 43.5825 72.8265 40.6576L73.0463 40.2902H80.3044C80.5097 40.2902 80.29 40.3622 80.2179 40.6576C78.316 47.8293 71.8036 52.0004 63.5333 52.0004C52.5579 52.0004 45.75 44.1696 45.75 32.7547C45.75 21.3399 52.1904 13.509 63.5333 13.509C74.8761 13.509 81.3886 21.3399 81.3886 32.7547V35.2437H53.1414C53.1414 42.5631 58.5589 45.7833 63.5333 45.7833V45.7797ZM63.5333 19.7262C56.4337 19.7262 53.1414 25.9469 53.1414 29.7506H73.7775C73.7775 25.2121 70.777 19.7262 63.5333 19.7262Z" fill="white"/>
<path d="M108.566 21.7035L101.467 51.2691H92.2454L83.3916 14.2401H90.4156L96.856 44.0254L104.175 14.2401H113.029L120.349 44.0254L126.789 14.2401H133.813L124.959 51.2691H115.738L108.566 21.7035Z" fill="white"/>
<path d="M185.772 1.50342V7.72414H159.427V22.7086H182.771V28.9293H159.427V51.2656H152.475V1.50342H185.772Z" fill="white"/>
<path d="M233.253 26.3822C231.643 22.0634 228.131 19.7221 223.153 19.7221C216.201 19.7221 212.03 25.1359 212.03 32.747C212.03 40.3582 216.201 45.772 223.153 45.772C228.131 45.772 231.643 43.4307 233.253 39.1118L233.376 38.7444H240.641L240.569 39.1118C238.519 47.2344 232.446 51.9927 223.153 51.9927C211.663 51.9927 205.078 44.1619 205.078 32.747C205.078 21.3322 211.666 13.5013 223.153 13.5013C232.446 13.5013 238.595 18.3317 240.569 26.3822L240.641 26.7496H233.376L233.253 26.3858V26.3822Z" fill="white"/>
<path d="M243.091 14.2368H250.335V3.62878H257.286V14.2404H265.921V19.7299H257.286V39.7825C257.286 43.5862 258.897 45.344 262.189 45.344C263.212 45.344 264.602 45.1243 265.337 44.9046L265.924 50.5381C264.681 50.9776 261.825 51.2694 259.923 51.2694C254.725 51.2694 250.338 48.4165 250.338 40.9495V19.7263H243.094V14.2368H243.091Z" fill="white"/>
<path d="M270.971 4.50382C270.971 2.09045 273.092 0.0408936 275.653 0.0408936C278.067 0.0408936 280.116 2.09045 280.116 4.50382C280.116 7.06487 278.067 9.18647 275.653 9.18647C273.092 9.18647 270.971 7.06487 270.971 4.50382ZM272.141 51.2691V14.2365H279.093V51.2655H272.141V51.2691Z" fill="white"/>
<path d="M304.105 52.0004C292.615 52.0004 285.958 44.1696 285.958 32.7547C285.958 21.3399 292.618 13.509 304.105 13.509C315.592 13.509 322.252 21.3399 322.252 32.7547C322.252 44.1696 315.52 52.0004 304.105 52.0004ZM304.105 19.7262C297.153 19.7262 292.91 25.14 292.91 32.7511C292.91 40.3622 297.153 45.7761 304.105 45.7761C311.057 45.7761 315.3 40.3622 315.3 32.7511C315.3 25.14 311.129 19.7262 304.105 19.7262Z" fill="white"/>
<path d="M191.993 14.2363H198.945V51.2653H191.993V14.2363ZM195.505 9.18989C197.918 9.18989 199.968 7.06829 199.968 4.50724C199.968 2.09387 197.918 0.0443115 195.505 0.0443115C192.944 0.0443115 190.822 2.09387 190.822 4.50724C190.822 7.06829 192.944 9.18989 195.505 9.18989Z" fill="white"/>
<path d="M334.654 17.972C336.116 15.7747 340.143 13.509 345.046 13.509C355.657 13.509 360.999 21.2642 360.999 30.7808V51.2728H354.047V30.7808C354.047 25.2193 351.565 19.7298 344.322 19.7298C338.173 19.7298 334.661 25.0716 334.661 30.7808V51.2728H327.709V14.2366H333.858L334.665 17.9684H334.657L334.654 17.972Z" fill="white"/>
</g>
<defs>
<clipPath id="clip0_2_111736">
<rect width="361" height="51.9594" fill="white" transform="translate(0 0.0405273)"/>
</clipPath>
</defs>
</svg>
